<mxfile host="app.diagrams.net" agent="Mozilla/5.0 (Windows NT 10.0; Win64; x64) AppleWebKit/537.36 (KHTML, like Gecko) Chrome/131.0.0.0 Safari/537.36" version="25.0.1">
  <diagram name="Page-1" id="j-db5952j6N0O03WxYpD">
    <mxGraphModel dx="1816" dy="514" grid="1" gridSize="10" guides="1" tooltips="1" connect="1" arrows="1" fold="1" page="1" pageScale="1" pageWidth="827" pageHeight="1169" math="0" shadow="0">
      <root>
        <mxCell id="0" />
        <mxCell id="1" parent="0" />
        <mxCell id="ZHRIBIaBG7YJhqpDX4hL-181" value="" style="group" parent="1" vertex="1" connectable="0">
          <mxGeometry x="160" y="560" width="360" height="260" as="geometry" />
        </mxCell>
        <mxCell id="ZHRIBIaBG7YJhqpDX4hL-179" value="" style="group" parent="ZHRIBIaBG7YJhqpDX4hL-181" vertex="1" connectable="0">
          <mxGeometry x="-100" y="40" width="240" height="200" as="geometry" />
        </mxCell>
        <mxCell id="ZHRIBIaBG7YJhqpDX4hL-178" value="" style="rounded=0;whiteSpace=wrap;html=1;fillColor=#009900;" parent="ZHRIBIaBG7YJhqpDX4hL-179" vertex="1">
          <mxGeometry y="-10" width="240" height="210" as="geometry" />
        </mxCell>
        <mxCell id="ZHRIBIaBG7YJhqpDX4hL-153" value="&lt;font style=&quot;font-size: 14px;&quot;&gt;Board 7&lt;/font&gt;" style="html=1;overflow=block;blockSpacing=1;whiteSpace=wrap;fontSize=16.7;fontColor=#3a414a;spacing=9;strokeColor=#3a414a;strokeOpacity=100;fillOpacity=100;rounded=1;absoluteArcSize=1;arcSize=9;fillColor=#dfe3e8;strokeWidth=0.8;lucidId=YuoszUFsmofv;" parent="ZHRIBIaBG7YJhqpDX4hL-179" vertex="1">
          <mxGeometry x="160" y="40" width="70" height="31" as="geometry" />
        </mxCell>
        <mxCell id="ZHRIBIaBG7YJhqpDX4hL-154" style="edgeStyle=orthogonalEdgeStyle;rounded=0;orthogonalLoop=1;jettySize=auto;html=1;exitX=0;exitY=0.5;exitDx=0;exitDy=0;endArrow=none;endFill=0;entryX=0;entryY=0.5;entryDx=0;entryDy=0;" parent="ZHRIBIaBG7YJhqpDX4hL-179" source="ZHRIBIaBG7YJhqpDX4hL-155" target="ZHRIBIaBG7YJhqpDX4hL-157" edge="1">
          <mxGeometry relative="1" as="geometry">
            <mxPoint x="121" y="156" as="targetPoint" />
            <Array as="points">
              <mxPoint x="120" y="176" />
              <mxPoint x="120" y="135" />
              <mxPoint x="160" y="135" />
            </Array>
          </mxGeometry>
        </mxCell>
        <mxCell id="ZHRIBIaBG7YJhqpDX4hL-305" style="edgeStyle=orthogonalEdgeStyle;rounded=0;orthogonalLoop=1;jettySize=auto;html=1;exitX=1;exitY=0.5;exitDx=0;exitDy=0;endArrow=none;endFill=0;" parent="ZHRIBIaBG7YJhqpDX4hL-179" source="ZHRIBIaBG7YJhqpDX4hL-155" edge="1">
          <mxGeometry relative="1" as="geometry">
            <mxPoint x="280" y="340" as="targetPoint" />
          </mxGeometry>
        </mxCell>
        <mxCell id="ZHRIBIaBG7YJhqpDX4hL-155" value="&lt;font style=&quot;font-size: 14px;&quot;&gt;Board 4&lt;/font&gt;" style="html=1;overflow=block;blockSpacing=1;whiteSpace=wrap;fontSize=16.7;fontColor=#3a414a;spacing=9;strokeColor=#3a414a;strokeOpacity=100;fillOpacity=100;rounded=1;absoluteArcSize=1;arcSize=9;fillColor=#dfe3e8;strokeWidth=0.8;lucidId=pvosknjAQz~D;" parent="ZHRIBIaBG7YJhqpDX4hL-179" vertex="1">
          <mxGeometry x="160" y="160" width="70" height="31" as="geometry" />
        </mxCell>
        <mxCell id="ZHRIBIaBG7YJhqpDX4hL-308" style="edgeStyle=orthogonalEdgeStyle;rounded=0;orthogonalLoop=1;jettySize=auto;html=1;exitX=1;exitY=0.5;exitDx=0;exitDy=0;endArrow=none;endFill=0;" parent="ZHRIBIaBG7YJhqpDX4hL-179" source="ZHRIBIaBG7YJhqpDX4hL-157" edge="1">
          <mxGeometry relative="1" as="geometry">
            <mxPoint x="310" y="135.66666666666674" as="targetPoint" />
          </mxGeometry>
        </mxCell>
        <mxCell id="ZHRIBIaBG7YJhqpDX4hL-157" value="&lt;font style=&quot;font-size: 14px;&quot;&gt;Board 5&lt;/font&gt;" style="html=1;overflow=block;blockSpacing=1;whiteSpace=wrap;fontSize=16.7;fontColor=#3a414a;spacing=9;strokeColor=#3a414a;strokeOpacity=100;fillOpacity=100;rounded=1;absoluteArcSize=1;arcSize=9;fillColor=#dfe3e8;strokeWidth=0.8;lucidId=qvosWwPaZB3i;" parent="ZHRIBIaBG7YJhqpDX4hL-179" vertex="1">
          <mxGeometry x="160" y="120" width="70" height="31" as="geometry" />
        </mxCell>
        <mxCell id="ZHRIBIaBG7YJhqpDX4hL-304" style="edgeStyle=orthogonalEdgeStyle;rounded=0;orthogonalLoop=1;jettySize=auto;html=1;exitX=1;exitY=0.5;exitDx=0;exitDy=0;endArrow=none;endFill=0;" parent="ZHRIBIaBG7YJhqpDX4hL-179" source="ZHRIBIaBG7YJhqpDX4hL-159" edge="1">
          <mxGeometry relative="1" as="geometry">
            <mxPoint x="310" y="340" as="targetPoint" />
          </mxGeometry>
        </mxCell>
        <mxCell id="ZHRIBIaBG7YJhqpDX4hL-159" value="&lt;font style=&quot;font-size: 14px;&quot;&gt;Board 6&lt;/font&gt;" style="html=1;overflow=block;blockSpacing=1;whiteSpace=wrap;fontSize=16.7;fontColor=#3a414a;spacing=9;strokeColor=#3a414a;strokeOpacity=100;fillOpacity=100;rounded=1;absoluteArcSize=1;arcSize=9;fillColor=#dfe3e8;strokeWidth=0.8;lucidId=qvosznP6m0~I;" parent="ZHRIBIaBG7YJhqpDX4hL-179" vertex="1">
          <mxGeometry x="160" y="80" width="70" height="31" as="geometry" />
        </mxCell>
        <mxCell id="ZHRIBIaBG7YJhqpDX4hL-204" style="edgeStyle=orthogonalEdgeStyle;rounded=0;orthogonalLoop=1;jettySize=auto;html=1;exitX=0.5;exitY=1;exitDx=0;exitDy=0;endArrow=none;endFill=0;" parent="ZHRIBIaBG7YJhqpDX4hL-179" source="ZHRIBIaBG7YJhqpDX4hL-160" edge="1">
          <mxGeometry relative="1" as="geometry">
            <mxPoint x="120.11111111111086" y="30" as="targetPoint" />
          </mxGeometry>
        </mxCell>
        <mxCell id="ZHRIBIaBG7YJhqpDX4hL-160" value="PIC" style="html=1;overflow=block;blockSpacing=1;whiteSpace=wrap;fontSize=16.7;fontColor=#3a414a;spacing=9;strokeColor=#000000;strokeOpacity=100;fillOpacity=100;rounded=1;absoluteArcSize=1;arcSize=9;fillColor=#6f7681;strokeWidth=0.8;lucidId=bwoseIxtghlV;" parent="ZHRIBIaBG7YJhqpDX4hL-179" vertex="1">
          <mxGeometry x="92.5" y="-10" width="55" height="29" as="geometry" />
        </mxCell>
        <mxCell id="ZHRIBIaBG7YJhqpDX4hL-162" value="" style="endArrow=none;html=1;rounded=0;" parent="ZHRIBIaBG7YJhqpDX4hL-179" edge="1">
          <mxGeometry width="50" height="50" relative="1" as="geometry">
            <mxPoint x="120" y="160" as="sourcePoint" />
            <mxPoint x="120" y="30" as="targetPoint" />
          </mxGeometry>
        </mxCell>
        <mxCell id="ZHRIBIaBG7YJhqpDX4hL-169" style="edgeStyle=orthogonalEdgeStyle;rounded=0;orthogonalLoop=1;jettySize=auto;html=1;exitX=0;exitY=0.5;exitDx=0;exitDy=0;endArrow=none;endFill=0;entryX=0;entryY=0.5;entryDx=0;entryDy=0;" parent="ZHRIBIaBG7YJhqpDX4hL-179" source="ZHRIBIaBG7YJhqpDX4hL-159" target="ZHRIBIaBG7YJhqpDX4hL-153" edge="1">
          <mxGeometry relative="1" as="geometry">
            <mxPoint x="151" y="70" as="targetPoint" />
            <mxPoint x="151" y="115" as="sourcePoint" />
            <Array as="points">
              <mxPoint x="151" y="96" />
              <mxPoint x="120" y="96" />
              <mxPoint x="120" y="56" />
            </Array>
          </mxGeometry>
        </mxCell>
        <mxCell id="ZHRIBIaBG7YJhqpDX4hL-177" style="edgeStyle=orthogonalEdgeStyle;rounded=0;orthogonalLoop=1;jettySize=auto;html=1;exitX=1;exitY=0.5;exitDx=0;exitDy=0;endArrow=none;endFill=0;" parent="ZHRIBIaBG7YJhqpDX4hL-179" source="ZHRIBIaBG7YJhqpDX4hL-170" edge="1">
          <mxGeometry relative="1" as="geometry">
            <mxPoint x="120" y="55.58333333333337" as="targetPoint" />
          </mxGeometry>
        </mxCell>
        <mxCell id="ZHRIBIaBG7YJhqpDX4hL-212" style="edgeStyle=orthogonalEdgeStyle;rounded=0;orthogonalLoop=1;jettySize=auto;html=1;exitX=0;exitY=0.5;exitDx=0;exitDy=0;endArrow=none;endFill=0;" parent="ZHRIBIaBG7YJhqpDX4hL-179" source="ZHRIBIaBG7YJhqpDX4hL-170" edge="1">
          <mxGeometry relative="1" as="geometry">
            <mxPoint x="-40" y="240" as="targetPoint" />
          </mxGeometry>
        </mxCell>
        <mxCell id="ZHRIBIaBG7YJhqpDX4hL-170" value="&lt;font style=&quot;font-size: 14px;&quot;&gt;Board 0&lt;/font&gt;" style="html=1;overflow=block;blockSpacing=1;whiteSpace=wrap;fontSize=16.7;fontColor=#3a414a;spacing=9;strokeColor=#3a414a;strokeOpacity=100;fillOpacity=100;rounded=1;absoluteArcSize=1;arcSize=9;fillColor=#dfe3e8;strokeWidth=0.8;lucidId=YuoszUFsmofv;" parent="ZHRIBIaBG7YJhqpDX4hL-179" vertex="1">
          <mxGeometry x="9" y="40" width="70" height="31" as="geometry" />
        </mxCell>
        <mxCell id="ZHRIBIaBG7YJhqpDX4hL-174" style="edgeStyle=orthogonalEdgeStyle;rounded=0;orthogonalLoop=1;jettySize=auto;html=1;exitX=1;exitY=0.5;exitDx=0;exitDy=0;endArrow=none;endFill=0;" parent="ZHRIBIaBG7YJhqpDX4hL-179" source="ZHRIBIaBG7YJhqpDX4hL-171" edge="1">
          <mxGeometry relative="1" as="geometry">
            <mxPoint x="120" y="175.58333333333337" as="targetPoint" />
          </mxGeometry>
        </mxCell>
        <mxCell id="ZHRIBIaBG7YJhqpDX4hL-171" value="&lt;font style=&quot;font-size: 14px;&quot;&gt;Board 3&lt;/font&gt;" style="html=1;overflow=block;blockSpacing=1;whiteSpace=wrap;fontSize=16.7;fontColor=#3a414a;spacing=9;strokeColor=#3a414a;strokeOpacity=100;fillOpacity=100;rounded=1;absoluteArcSize=1;arcSize=9;fillColor=#dfe3e8;strokeWidth=0.8;lucidId=pvosknjAQz~D;" parent="ZHRIBIaBG7YJhqpDX4hL-179" vertex="1">
          <mxGeometry x="9" y="160" width="70" height="31" as="geometry" />
        </mxCell>
        <mxCell id="ZHRIBIaBG7YJhqpDX4hL-175" style="edgeStyle=orthogonalEdgeStyle;rounded=0;orthogonalLoop=1;jettySize=auto;html=1;exitX=1;exitY=0.5;exitDx=0;exitDy=0;endArrow=none;endFill=0;" parent="ZHRIBIaBG7YJhqpDX4hL-179" source="ZHRIBIaBG7YJhqpDX4hL-172" edge="1">
          <mxGeometry relative="1" as="geometry">
            <mxPoint x="120" y="135.58333333333337" as="targetPoint" />
          </mxGeometry>
        </mxCell>
        <mxCell id="ZHRIBIaBG7YJhqpDX4hL-214" style="edgeStyle=orthogonalEdgeStyle;rounded=0;orthogonalLoop=1;jettySize=auto;html=1;exitX=0;exitY=0.5;exitDx=0;exitDy=0;endArrow=none;endFill=0;" parent="ZHRIBIaBG7YJhqpDX4hL-179" source="ZHRIBIaBG7YJhqpDX4hL-172" edge="1">
          <mxGeometry relative="1" as="geometry">
            <mxPoint x="-20" y="220" as="targetPoint" />
          </mxGeometry>
        </mxCell>
        <mxCell id="ZHRIBIaBG7YJhqpDX4hL-172" value="&lt;font style=&quot;font-size: 14px;&quot;&gt;Board 2&lt;/font&gt;" style="html=1;overflow=block;blockSpacing=1;whiteSpace=wrap;fontSize=16.7;fontColor=#3a414a;spacing=9;strokeColor=#3a414a;strokeOpacity=100;fillOpacity=100;rounded=1;absoluteArcSize=1;arcSize=9;fillColor=#dfe3e8;strokeWidth=0.8;lucidId=qvosWwPaZB3i;" parent="ZHRIBIaBG7YJhqpDX4hL-179" vertex="1">
          <mxGeometry x="9" y="120" width="70" height="31" as="geometry" />
        </mxCell>
        <mxCell id="ZHRIBIaBG7YJhqpDX4hL-176" style="edgeStyle=orthogonalEdgeStyle;rounded=0;orthogonalLoop=1;jettySize=auto;html=1;exitX=1;exitY=0.5;exitDx=0;exitDy=0;endArrow=none;endFill=0;" parent="ZHRIBIaBG7YJhqpDX4hL-179" source="ZHRIBIaBG7YJhqpDX4hL-173" edge="1">
          <mxGeometry relative="1" as="geometry">
            <mxPoint x="120" y="95.58333333333337" as="targetPoint" />
          </mxGeometry>
        </mxCell>
        <mxCell id="ZHRIBIaBG7YJhqpDX4hL-213" style="edgeStyle=orthogonalEdgeStyle;rounded=0;orthogonalLoop=1;jettySize=auto;html=1;exitX=0;exitY=0.5;exitDx=0;exitDy=0;endArrow=none;endFill=0;" parent="ZHRIBIaBG7YJhqpDX4hL-179" source="ZHRIBIaBG7YJhqpDX4hL-173" edge="1">
          <mxGeometry relative="1" as="geometry">
            <mxPoint x="-40" y="95.31578947368439" as="targetPoint" />
          </mxGeometry>
        </mxCell>
        <mxCell id="ZHRIBIaBG7YJhqpDX4hL-173" value="&lt;font style=&quot;font-size: 14px;&quot;&gt;Board 1&lt;/font&gt;" style="html=1;overflow=block;blockSpacing=1;whiteSpace=wrap;fontSize=16.7;fontColor=#3a414a;spacing=9;strokeColor=#3a414a;strokeOpacity=100;fillOpacity=100;rounded=1;absoluteArcSize=1;arcSize=9;fillColor=#dfe3e8;strokeWidth=0.8;lucidId=qvosznP6m0~I;" parent="ZHRIBIaBG7YJhqpDX4hL-179" vertex="1">
          <mxGeometry x="9" y="80" width="70" height="31" as="geometry" />
        </mxCell>
        <mxCell id="ZHRIBIaBG7YJhqpDX4hL-166" value="" style="group" parent="ZHRIBIaBG7YJhqpDX4hL-181" vertex="1" connectable="0">
          <mxGeometry x="310" y="-20" width="130" height="280" as="geometry" />
        </mxCell>
        <mxCell id="ZHRIBIaBG7YJhqpDX4hL-116" value="" style="html=1;overflow=block;blockSpacing=1;whiteSpace=wrap;fontSize=13;spacing=9;strokeColor=#000000;rounded=0;absoluteArcSize=1;arcSize=9;fillColor=#009900;strokeWidth=NaN;lucidId=1tosVuPBt-i9;" parent="ZHRIBIaBG7YJhqpDX4hL-166" vertex="1">
          <mxGeometry x="-30" y="50" width="130" height="210" as="geometry" />
        </mxCell>
        <mxCell id="ZHRIBIaBG7YJhqpDX4hL-293" style="edgeStyle=orthogonalEdgeStyle;rounded=0;orthogonalLoop=1;jettySize=auto;html=1;exitX=1;exitY=0.5;exitDx=0;exitDy=0;endArrow=none;endFill=0;" parent="ZHRIBIaBG7YJhqpDX4hL-166" source="ZHRIBIaBG7YJhqpDX4hL-118" edge="1">
          <mxGeometry relative="1" as="geometry">
            <mxPoint x="150" y="300" as="targetPoint" />
          </mxGeometry>
        </mxCell>
        <mxCell id="ZHRIBIaBG7YJhqpDX4hL-118" value="&lt;font style=&quot;font-size: 14px;&quot;&gt;Board 0&lt;/font&gt;" style="html=1;overflow=block;blockSpacing=1;whiteSpace=wrap;fontSize=16.7;fontColor=#3a414a;spacing=9;strokeColor=#3a414a;strokeOpacity=100;fillOpacity=100;rounded=1;absoluteArcSize=1;arcSize=9;fillColor=#dfe3e8;strokeWidth=0.8;lucidId=YuoszUFsmofv;" parent="ZHRIBIaBG7YJhqpDX4hL-166" vertex="1">
          <mxGeometry x="20" y="85" width="70" height="31" as="geometry" />
        </mxCell>
        <mxCell id="ZHRIBIaBG7YJhqpDX4hL-136" style="edgeStyle=orthogonalEdgeStyle;rounded=0;orthogonalLoop=1;jettySize=auto;html=1;exitX=0;exitY=0.5;exitDx=0;exitDy=0;endArrow=none;endFill=0;" parent="ZHRIBIaBG7YJhqpDX4hL-166" source="ZHRIBIaBG7YJhqpDX4hL-119" edge="1">
          <mxGeometry relative="1" as="geometry">
            <mxPoint x="-10" y="190" as="targetPoint" />
          </mxGeometry>
        </mxCell>
        <mxCell id="ZHRIBIaBG7YJhqpDX4hL-289" style="edgeStyle=orthogonalEdgeStyle;rounded=0;orthogonalLoop=1;jettySize=auto;html=1;exitX=1;exitY=0.5;exitDx=0;exitDy=0;endArrow=none;endFill=0;" parent="ZHRIBIaBG7YJhqpDX4hL-166" source="ZHRIBIaBG7YJhqpDX4hL-119" edge="1">
          <mxGeometry relative="1" as="geometry">
            <mxPoint x="130" y="235.19047619047615" as="targetPoint" />
          </mxGeometry>
        </mxCell>
        <mxCell id="ZHRIBIaBG7YJhqpDX4hL-119" value="&lt;font style=&quot;font-size: 14px;&quot;&gt;Board 3&lt;/font&gt;" style="html=1;overflow=block;blockSpacing=1;whiteSpace=wrap;fontSize=16.7;fontColor=#3a414a;spacing=9;strokeColor=#3a414a;strokeOpacity=100;fillOpacity=100;rounded=1;absoluteArcSize=1;arcSize=9;fillColor=#dfe3e8;strokeWidth=0.8;lucidId=pvosknjAQz~D;" parent="ZHRIBIaBG7YJhqpDX4hL-166" vertex="1">
          <mxGeometry x="20" y="220" width="70" height="31" as="geometry" />
        </mxCell>
        <mxCell id="ZHRIBIaBG7YJhqpDX4hL-135" style="edgeStyle=orthogonalEdgeStyle;rounded=0;orthogonalLoop=1;jettySize=auto;html=1;exitX=0;exitY=0.5;exitDx=0;exitDy=0;endArrow=none;endFill=0;" parent="ZHRIBIaBG7YJhqpDX4hL-166" source="ZHRIBIaBG7YJhqpDX4hL-120" edge="1">
          <mxGeometry relative="1" as="geometry">
            <mxPoint x="-10" y="180" as="targetPoint" />
          </mxGeometry>
        </mxCell>
        <mxCell id="ZHRIBIaBG7YJhqpDX4hL-290" style="edgeStyle=orthogonalEdgeStyle;rounded=0;orthogonalLoop=1;jettySize=auto;html=1;exitX=1;exitY=0.5;exitDx=0;exitDy=0;endArrow=none;endFill=0;" parent="ZHRIBIaBG7YJhqpDX4hL-166" source="ZHRIBIaBG7YJhqpDX4hL-120" edge="1">
          <mxGeometry relative="1" as="geometry">
            <mxPoint x="130" y="280" as="targetPoint" />
          </mxGeometry>
        </mxCell>
        <mxCell id="ZHRIBIaBG7YJhqpDX4hL-120" value="&lt;font style=&quot;font-size: 14px;&quot;&gt;Board 2&lt;/font&gt;" style="html=1;overflow=block;blockSpacing=1;whiteSpace=wrap;fontSize=16.7;fontColor=#3a414a;spacing=9;strokeColor=#3a414a;strokeOpacity=100;fillOpacity=100;rounded=1;absoluteArcSize=1;arcSize=9;fillColor=#dfe3e8;strokeWidth=0.8;lucidId=qvosWwPaZB3i;" parent="ZHRIBIaBG7YJhqpDX4hL-166" vertex="1">
          <mxGeometry x="20" y="175" width="70" height="31" as="geometry" />
        </mxCell>
        <mxCell id="ZHRIBIaBG7YJhqpDX4hL-134" style="edgeStyle=orthogonalEdgeStyle;rounded=0;orthogonalLoop=1;jettySize=auto;html=1;exitX=0;exitY=0.5;exitDx=0;exitDy=0;endArrow=none;endFill=0;" parent="ZHRIBIaBG7YJhqpDX4hL-166" source="ZHRIBIaBG7YJhqpDX4hL-121" edge="1">
          <mxGeometry relative="1" as="geometry">
            <mxPoint x="-10" y="146.52631578947364" as="targetPoint" />
          </mxGeometry>
        </mxCell>
        <mxCell id="ZHRIBIaBG7YJhqpDX4hL-296" style="edgeStyle=orthogonalEdgeStyle;rounded=0;orthogonalLoop=1;jettySize=auto;html=1;exitX=1;exitY=0.5;exitDx=0;exitDy=0;endArrow=none;endFill=0;" parent="ZHRIBIaBG7YJhqpDX4hL-166" source="ZHRIBIaBG7YJhqpDX4hL-121" edge="1">
          <mxGeometry relative="1" as="geometry">
            <mxPoint x="150" y="146.61904761904748" as="targetPoint" />
          </mxGeometry>
        </mxCell>
        <mxCell id="ZHRIBIaBG7YJhqpDX4hL-121" value="&lt;font style=&quot;font-size: 14px;&quot;&gt;Board 1&lt;/font&gt;" style="html=1;overflow=block;blockSpacing=1;whiteSpace=wrap;fontSize=16.7;fontColor=#3a414a;spacing=9;strokeColor=#3a414a;strokeOpacity=100;fillOpacity=100;rounded=1;absoluteArcSize=1;arcSize=9;fillColor=#dfe3e8;strokeWidth=0.8;lucidId=qvosznP6m0~I;" parent="ZHRIBIaBG7YJhqpDX4hL-166" vertex="1">
          <mxGeometry x="20" y="131" width="70" height="31" as="geometry" />
        </mxCell>
        <mxCell id="ZHRIBIaBG7YJhqpDX4hL-122" value="PIC" style="html=1;overflow=block;blockSpacing=1;whiteSpace=wrap;fontSize=16.7;fontColor=#3a414a;spacing=9;strokeColor=#000000;strokeOpacity=100;fillOpacity=100;rounded=1;absoluteArcSize=1;arcSize=9;fillColor=#6f7681;strokeWidth=0.8;lucidId=bwoseIxtghlV;" parent="ZHRIBIaBG7YJhqpDX4hL-166" vertex="1">
          <mxGeometry x="7.5" y="50" width="55" height="29" as="geometry" />
        </mxCell>
        <mxCell id="ZHRIBIaBG7YJhqpDX4hL-131" style="edgeStyle=orthogonalEdgeStyle;rounded=0;orthogonalLoop=1;jettySize=auto;html=1;exitX=0;exitY=0.5;exitDx=0;exitDy=0;endArrow=none;endFill=0;entryX=0;entryY=0.5;entryDx=0;entryDy=0;" parent="ZHRIBIaBG7YJhqpDX4hL-166" source="ZHRIBIaBG7YJhqpDX4hL-118" target="ZHRIBIaBG7YJhqpDX4hL-122" edge="1">
          <mxGeometry relative="1" as="geometry">
            <mxPoint x="4" y="50" as="targetPoint" />
            <Array as="points">
              <mxPoint x="-10" y="100" />
              <mxPoint x="-10" y="65" />
              <mxPoint x="8" y="65" />
            </Array>
          </mxGeometry>
        </mxCell>
        <mxCell id="ZHRIBIaBG7YJhqpDX4hL-132" value="" style="endArrow=none;html=1;rounded=0;exitX=0.154;exitY=0.656;exitDx=0;exitDy=0;exitPerimeter=0;" parent="ZHRIBIaBG7YJhqpDX4hL-166" source="ZHRIBIaBG7YJhqpDX4hL-116" edge="1">
          <mxGeometry width="50" height="50" relative="1" as="geometry">
            <mxPoint x="30" y="120" as="sourcePoint" />
            <mxPoint x="-10" y="100" as="targetPoint" />
          </mxGeometry>
        </mxCell>
        <mxCell id="ZHRIBIaBG7YJhqpDX4hL-149" value="Phase Locked DDS Array" style="rounded=1;whiteSpace=wrap;html=1;fillColor=none;shadow=1;strokeColor=none;" parent="ZHRIBIaBG7YJhqpDX4hL-166" vertex="1">
          <mxGeometry x="-40" width="67.5" height="50" as="geometry" />
        </mxCell>
        <mxCell id="ZHRIBIaBG7YJhqpDX4hL-294" value="" style="endArrow=none;html=1;rounded=0;" parent="ZHRIBIaBG7YJhqpDX4hL-181" edge="1">
          <mxGeometry width="50" height="50" relative="1" as="geometry">
            <mxPoint x="270" y="280" as="sourcePoint" />
            <mxPoint x="460" y="280" as="targetPoint" />
          </mxGeometry>
        </mxCell>
        <mxCell id="ZHRIBIaBG7YJhqpDX4hL-215" value="" style="endArrow=none;html=1;rounded=0;" parent="1" edge="1">
          <mxGeometry width="50" height="50" relative="1" as="geometry">
            <mxPoint x="20" y="840" as="sourcePoint" />
            <mxPoint x="310" y="840" as="targetPoint" />
          </mxGeometry>
        </mxCell>
        <mxCell id="ZHRIBIaBG7YJhqpDX4hL-263" value="" style="group" parent="1" vertex="1" connectable="0">
          <mxGeometry x="300" y="920" width="470" height="208.5" as="geometry" />
        </mxCell>
        <mxCell id="ZHRIBIaBG7YJhqpDX4hL-217" value="" style="html=1;jettySize=18;whiteSpace=wrap;fontSize=13;strokeColor=#3a414a;strokeOpacity=100;strokeWidth=0.8;rounded=1;arcSize=12;edgeStyle=orthogonalEdgeStyle;startArrow=none;endArrow=none;lucidId=-.DqYtDIdAJy;" parent="ZHRIBIaBG7YJhqpDX4hL-263" edge="1">
          <mxGeometry width="100" height="100" relative="1" as="geometry">
            <Array as="points" />
            <mxPoint x="10" y="135" as="sourcePoint" />
            <mxPoint x="10" as="targetPoint" />
          </mxGeometry>
        </mxCell>
        <mxCell id="ZHRIBIaBG7YJhqpDX4hL-218" value="&lt;div style=&quot;display: flex; justify-content: center; text-align: center; align-items: baseline; font-size: 0; line-height: 1.25;margin-top: -2px;&quot;&gt;&lt;span&gt;&lt;span style=&quot;font-size:13.3px;color:#333333;font-weight: bold;&quot;&gt;x15&lt;/span&gt;&lt;/span&gt;&lt;/div&gt;" style="text;html=1;resizable=0;labelBackgroundColor=default;align=center;verticalAlign=middle;" parent="ZHRIBIaBG7YJhqpDX4hL-217" vertex="1">
          <mxGeometry x="-0.9209748948399497" relative="1" as="geometry">
            <mxPoint x="13" y="-5" as="offset" />
          </mxGeometry>
        </mxCell>
        <mxCell id="ZHRIBIaBG7YJhqpDX4hL-229" value="" style="html=1;jettySize=18;whiteSpace=wrap;fontSize=13;strokeColor=#3a414a;strokeOpacity=100;strokeWidth=0.8;rounded=1;arcSize=12;edgeStyle=orthogonalEdgeStyle;startArrow=none;endArrow=none;lucidId=-.DqYtDIdAJy;" parent="ZHRIBIaBG7YJhqpDX4hL-263" edge="1">
          <mxGeometry width="100" height="100" relative="1" as="geometry">
            <Array as="points" />
            <mxPoint x="40" y="135" as="sourcePoint" />
            <mxPoint x="40" as="targetPoint" />
          </mxGeometry>
        </mxCell>
        <mxCell id="ZHRIBIaBG7YJhqpDX4hL-230" value="&lt;div style=&quot;display: flex; justify-content: center; text-align: center; align-items: baseline; font-size: 0; line-height: 1.25;margin-top: -2px;&quot;&gt;&lt;span&gt;&lt;span style=&quot;font-size:13.3px;color:#333333;font-weight: bold;&quot;&gt;x14&lt;/span&gt;&lt;/span&gt;&lt;/div&gt;" style="text;html=1;resizable=0;labelBackgroundColor=default;align=center;verticalAlign=middle;" parent="ZHRIBIaBG7YJhqpDX4hL-229" vertex="1">
          <mxGeometry x="-0.9209748948399497" relative="1" as="geometry">
            <mxPoint x="13" y="-5" as="offset" />
          </mxGeometry>
        </mxCell>
        <mxCell id="ZHRIBIaBG7YJhqpDX4hL-233" value="" style="html=1;jettySize=18;whiteSpace=wrap;fontSize=13;strokeColor=#3a414a;strokeOpacity=100;strokeWidth=0.8;rounded=1;arcSize=12;edgeStyle=orthogonalEdgeStyle;startArrow=none;endArrow=none;lucidId=-.DqYtDIdAJy;" parent="ZHRIBIaBG7YJhqpDX4hL-263" edge="1">
          <mxGeometry width="100" height="100" relative="1" as="geometry">
            <Array as="points" />
            <mxPoint x="70" y="135" as="sourcePoint" />
            <mxPoint x="70" as="targetPoint" />
          </mxGeometry>
        </mxCell>
        <mxCell id="ZHRIBIaBG7YJhqpDX4hL-234" value="&lt;div style=&quot;display: flex; justify-content: center; text-align: center; align-items: baseline; font-size: 0; line-height: 1.25;margin-top: -2px;&quot;&gt;&lt;span&gt;&lt;span style=&quot;font-size:13.3px;color:#333333;font-weight: bold;&quot;&gt;x13&lt;/span&gt;&lt;/span&gt;&lt;/div&gt;" style="text;html=1;resizable=0;labelBackgroundColor=default;align=center;verticalAlign=middle;" parent="ZHRIBIaBG7YJhqpDX4hL-233" vertex="1">
          <mxGeometry x="-0.9209748948399497" relative="1" as="geometry">
            <mxPoint x="13" y="-5" as="offset" />
          </mxGeometry>
        </mxCell>
        <mxCell id="ZHRIBIaBG7YJhqpDX4hL-235" value="" style="html=1;jettySize=18;whiteSpace=wrap;fontSize=13;strokeColor=#3a414a;strokeOpacity=100;strokeWidth=0.8;rounded=1;arcSize=12;edgeStyle=orthogonalEdgeStyle;startArrow=none;endArrow=none;lucidId=-.DqYtDIdAJy;" parent="ZHRIBIaBG7YJhqpDX4hL-263" edge="1">
          <mxGeometry width="100" height="100" relative="1" as="geometry">
            <Array as="points" />
            <mxPoint x="100" y="135" as="sourcePoint" />
            <mxPoint x="100" as="targetPoint" />
          </mxGeometry>
        </mxCell>
        <mxCell id="ZHRIBIaBG7YJhqpDX4hL-236" value="&lt;div style=&quot;display: flex; justify-content: center; text-align: center; align-items: baseline; font-size: 0; line-height: 1.25;margin-top: -2px;&quot;&gt;&lt;span&gt;&lt;span style=&quot;font-size:13.3px;color:#333333;font-weight: bold;&quot;&gt;x12&lt;/span&gt;&lt;/span&gt;&lt;/div&gt;" style="text;html=1;resizable=0;labelBackgroundColor=default;align=center;verticalAlign=middle;" parent="ZHRIBIaBG7YJhqpDX4hL-235" vertex="1">
          <mxGeometry x="-0.9209748948399497" relative="1" as="geometry">
            <mxPoint x="13" y="-5" as="offset" />
          </mxGeometry>
        </mxCell>
        <mxCell id="ZHRIBIaBG7YJhqpDX4hL-237" value="" style="html=1;jettySize=18;whiteSpace=wrap;fontSize=13;strokeColor=#3a414a;strokeOpacity=100;strokeWidth=0.8;rounded=1;arcSize=12;edgeStyle=orthogonalEdgeStyle;startArrow=none;endArrow=none;lucidId=-.DqYtDIdAJy;" parent="ZHRIBIaBG7YJhqpDX4hL-263" edge="1">
          <mxGeometry width="100" height="100" relative="1" as="geometry">
            <Array as="points" />
            <mxPoint x="130" y="135" as="sourcePoint" />
            <mxPoint x="130" as="targetPoint" />
          </mxGeometry>
        </mxCell>
        <mxCell id="ZHRIBIaBG7YJhqpDX4hL-238" value="&lt;div style=&quot;display: flex; justify-content: center; text-align: center; align-items: baseline; font-size: 0; line-height: 1.25;margin-top: -2px;&quot;&gt;&lt;span&gt;&lt;span style=&quot;font-size:13.3px;color:#333333;font-weight: bold;&quot;&gt;x11&lt;/span&gt;&lt;/span&gt;&lt;/div&gt;" style="text;html=1;resizable=0;labelBackgroundColor=default;align=center;verticalAlign=middle;" parent="ZHRIBIaBG7YJhqpDX4hL-237" vertex="1">
          <mxGeometry x="-0.9209748948399497" relative="1" as="geometry">
            <mxPoint x="13" y="-5" as="offset" />
          </mxGeometry>
        </mxCell>
        <mxCell id="ZHRIBIaBG7YJhqpDX4hL-239" value="" style="html=1;jettySize=18;whiteSpace=wrap;fontSize=13;strokeColor=#3a414a;strokeOpacity=100;strokeWidth=0.8;rounded=1;arcSize=12;edgeStyle=orthogonalEdgeStyle;startArrow=none;endArrow=none;lucidId=-.DqYtDIdAJy;" parent="ZHRIBIaBG7YJhqpDX4hL-263" edge="1">
          <mxGeometry width="100" height="100" relative="1" as="geometry">
            <Array as="points" />
            <mxPoint x="160" y="135" as="sourcePoint" />
            <mxPoint x="160" as="targetPoint" />
          </mxGeometry>
        </mxCell>
        <mxCell id="ZHRIBIaBG7YJhqpDX4hL-240" value="&lt;div style=&quot;display: flex; justify-content: center; text-align: center; align-items: baseline; font-size: 0; line-height: 1.25;margin-top: -2px;&quot;&gt;&lt;span&gt;&lt;span style=&quot;font-size:13.3px;color:#333333;font-weight: bold;&quot;&gt;x10&lt;/span&gt;&lt;/span&gt;&lt;/div&gt;" style="text;html=1;resizable=0;labelBackgroundColor=default;align=center;verticalAlign=middle;" parent="ZHRIBIaBG7YJhqpDX4hL-239" vertex="1">
          <mxGeometry x="-0.9209748948399497" relative="1" as="geometry">
            <mxPoint x="13" y="-5" as="offset" />
          </mxGeometry>
        </mxCell>
        <mxCell id="ZHRIBIaBG7YJhqpDX4hL-241" value="" style="html=1;jettySize=18;whiteSpace=wrap;fontSize=13;strokeColor=#3a414a;strokeOpacity=100;strokeWidth=0.8;rounded=1;arcSize=12;edgeStyle=orthogonalEdgeStyle;startArrow=none;endArrow=none;lucidId=-.DqYtDIdAJy;" parent="ZHRIBIaBG7YJhqpDX4hL-263" edge="1">
          <mxGeometry width="100" height="100" relative="1" as="geometry">
            <Array as="points" />
            <mxPoint x="190" y="135" as="sourcePoint" />
            <mxPoint x="190" as="targetPoint" />
          </mxGeometry>
        </mxCell>
        <mxCell id="ZHRIBIaBG7YJhqpDX4hL-242" value="&lt;div style=&quot;display: flex; justify-content: center; text-align: center; align-items: baseline; font-size: 0; line-height: 1.25;margin-top: -2px;&quot;&gt;&lt;span&gt;&lt;span style=&quot;font-size:13.3px;color:#333333;font-weight: bold;&quot;&gt;x9&lt;/span&gt;&lt;/span&gt;&lt;/div&gt;" style="text;html=1;resizable=0;labelBackgroundColor=default;align=center;verticalAlign=middle;" parent="ZHRIBIaBG7YJhqpDX4hL-241" vertex="1">
          <mxGeometry x="-0.9209748948399497" relative="1" as="geometry">
            <mxPoint x="13" y="-5" as="offset" />
          </mxGeometry>
        </mxCell>
        <mxCell id="ZHRIBIaBG7YJhqpDX4hL-243" value="" style="html=1;jettySize=18;whiteSpace=wrap;fontSize=13;strokeColor=#3a414a;strokeOpacity=100;strokeWidth=0.8;rounded=1;arcSize=12;edgeStyle=orthogonalEdgeStyle;startArrow=none;endArrow=none;lucidId=-.DqYtDIdAJy;" parent="ZHRIBIaBG7YJhqpDX4hL-263" edge="1">
          <mxGeometry width="100" height="100" relative="1" as="geometry">
            <Array as="points" />
            <mxPoint x="220" y="135" as="sourcePoint" />
            <mxPoint x="220" as="targetPoint" />
          </mxGeometry>
        </mxCell>
        <mxCell id="ZHRIBIaBG7YJhqpDX4hL-244" value="&lt;div style=&quot;display: flex; justify-content: center; text-align: center; align-items: baseline; font-size: 0; line-height: 1.25;margin-top: -2px;&quot;&gt;&lt;span&gt;&lt;span style=&quot;font-size:13.3px;color:#333333;font-weight: bold;&quot;&gt;x8&lt;/span&gt;&lt;/span&gt;&lt;/div&gt;" style="text;html=1;resizable=0;labelBackgroundColor=default;align=center;verticalAlign=middle;" parent="ZHRIBIaBG7YJhqpDX4hL-243" vertex="1">
          <mxGeometry x="-0.9209748948399497" relative="1" as="geometry">
            <mxPoint x="13" y="-5" as="offset" />
          </mxGeometry>
        </mxCell>
        <mxCell id="ZHRIBIaBG7YJhqpDX4hL-245" value="" style="html=1;jettySize=18;whiteSpace=wrap;fontSize=13;strokeColor=#3a414a;strokeOpacity=100;strokeWidth=0.8;rounded=1;arcSize=12;edgeStyle=orthogonalEdgeStyle;startArrow=none;endArrow=none;lucidId=-.DqYtDIdAJy;" parent="ZHRIBIaBG7YJhqpDX4hL-263" edge="1">
          <mxGeometry width="100" height="100" relative="1" as="geometry">
            <Array as="points" />
            <mxPoint x="250" y="135" as="sourcePoint" />
            <mxPoint x="250" as="targetPoint" />
          </mxGeometry>
        </mxCell>
        <mxCell id="ZHRIBIaBG7YJhqpDX4hL-246" value="&lt;div style=&quot;display: flex; justify-content: center; text-align: center; align-items: baseline; font-size: 0; line-height: 1.25;margin-top: -2px;&quot;&gt;&lt;span&gt;&lt;span style=&quot;font-size:13.3px;color:#333333;font-weight: bold;&quot;&gt;x7&lt;/span&gt;&lt;/span&gt;&lt;/div&gt;" style="text;html=1;resizable=0;labelBackgroundColor=default;align=center;verticalAlign=middle;" parent="ZHRIBIaBG7YJhqpDX4hL-245" vertex="1">
          <mxGeometry x="-0.9209748948399497" relative="1" as="geometry">
            <mxPoint x="13" y="-5" as="offset" />
          </mxGeometry>
        </mxCell>
        <mxCell id="ZHRIBIaBG7YJhqpDX4hL-247" value="" style="html=1;jettySize=18;whiteSpace=wrap;fontSize=13;strokeColor=#3a414a;strokeOpacity=100;strokeWidth=0.8;rounded=1;arcSize=12;edgeStyle=orthogonalEdgeStyle;startArrow=none;endArrow=none;lucidId=-.DqYtDIdAJy;" parent="ZHRIBIaBG7YJhqpDX4hL-263" edge="1">
          <mxGeometry width="100" height="100" relative="1" as="geometry">
            <Array as="points" />
            <mxPoint x="280" y="135" as="sourcePoint" />
            <mxPoint x="280" as="targetPoint" />
          </mxGeometry>
        </mxCell>
        <mxCell id="ZHRIBIaBG7YJhqpDX4hL-248" value="&lt;div style=&quot;display: flex; justify-content: center; text-align: center; align-items: baseline; font-size: 0; line-height: 1.25;margin-top: -2px;&quot;&gt;&lt;span&gt;&lt;span style=&quot;font-size:13.3px;color:#333333;font-weight: bold;&quot;&gt;x6&lt;/span&gt;&lt;/span&gt;&lt;/div&gt;" style="text;html=1;resizable=0;labelBackgroundColor=default;align=center;verticalAlign=middle;" parent="ZHRIBIaBG7YJhqpDX4hL-247" vertex="1">
          <mxGeometry x="-0.9209748948399497" relative="1" as="geometry">
            <mxPoint x="13" y="-5" as="offset" />
          </mxGeometry>
        </mxCell>
        <mxCell id="ZHRIBIaBG7YJhqpDX4hL-249" value="" style="html=1;jettySize=18;whiteSpace=wrap;fontSize=13;strokeColor=#3a414a;strokeOpacity=100;strokeWidth=0.8;rounded=1;arcSize=12;edgeStyle=orthogonalEdgeStyle;startArrow=none;endArrow=none;lucidId=-.DqYtDIdAJy;" parent="ZHRIBIaBG7YJhqpDX4hL-263" edge="1">
          <mxGeometry width="100" height="100" relative="1" as="geometry">
            <Array as="points" />
            <mxPoint x="310" y="135" as="sourcePoint" />
            <mxPoint x="310" as="targetPoint" />
          </mxGeometry>
        </mxCell>
        <mxCell id="ZHRIBIaBG7YJhqpDX4hL-250" value="&lt;div style=&quot;display: flex; justify-content: center; text-align: center; align-items: baseline; font-size: 0; line-height: 1.25;margin-top: -2px;&quot;&gt;&lt;span&gt;&lt;span style=&quot;font-size:13.3px;color:#333333;font-weight: bold;&quot;&gt;x5&lt;/span&gt;&lt;/span&gt;&lt;/div&gt;" style="text;html=1;resizable=0;labelBackgroundColor=default;align=center;verticalAlign=middle;" parent="ZHRIBIaBG7YJhqpDX4hL-249" vertex="1">
          <mxGeometry x="-0.9209748948399497" relative="1" as="geometry">
            <mxPoint x="13" y="-5" as="offset" />
          </mxGeometry>
        </mxCell>
        <mxCell id="ZHRIBIaBG7YJhqpDX4hL-251" value="" style="html=1;jettySize=18;whiteSpace=wrap;fontSize=13;strokeColor=#3a414a;strokeOpacity=100;strokeWidth=0.8;rounded=1;arcSize=12;edgeStyle=orthogonalEdgeStyle;startArrow=none;endArrow=none;lucidId=-.DqYtDIdAJy;" parent="ZHRIBIaBG7YJhqpDX4hL-263" edge="1">
          <mxGeometry width="100" height="100" relative="1" as="geometry">
            <Array as="points" />
            <mxPoint x="340" y="135" as="sourcePoint" />
            <mxPoint x="340" as="targetPoint" />
          </mxGeometry>
        </mxCell>
        <mxCell id="ZHRIBIaBG7YJhqpDX4hL-252" value="&lt;div style=&quot;display: flex; justify-content: center; text-align: center; align-items: baseline; font-size: 0; line-height: 1.25;margin-top: -2px;&quot;&gt;&lt;span&gt;&lt;span style=&quot;font-size:13.3px;color:#333333;font-weight: bold;&quot;&gt;x4&lt;/span&gt;&lt;/span&gt;&lt;/div&gt;" style="text;html=1;resizable=0;labelBackgroundColor=default;align=center;verticalAlign=middle;" parent="ZHRIBIaBG7YJhqpDX4hL-251" vertex="1">
          <mxGeometry x="-0.9209748948399497" relative="1" as="geometry">
            <mxPoint x="13" y="-5" as="offset" />
          </mxGeometry>
        </mxCell>
        <mxCell id="ZHRIBIaBG7YJhqpDX4hL-253" value="" style="html=1;jettySize=18;whiteSpace=wrap;fontSize=13;strokeColor=#3a414a;strokeOpacity=100;strokeWidth=0.8;rounded=1;arcSize=12;edgeStyle=orthogonalEdgeStyle;startArrow=none;endArrow=none;lucidId=-.DqYtDIdAJy;" parent="ZHRIBIaBG7YJhqpDX4hL-263" edge="1">
          <mxGeometry width="100" height="100" relative="1" as="geometry">
            <Array as="points" />
            <mxPoint x="370" y="135" as="sourcePoint" />
            <mxPoint x="370" as="targetPoint" />
          </mxGeometry>
        </mxCell>
        <mxCell id="ZHRIBIaBG7YJhqpDX4hL-254" value="&lt;div style=&quot;display: flex; justify-content: center; text-align: center; align-items: baseline; font-size: 0; line-height: 1.25;margin-top: -2px;&quot;&gt;&lt;span&gt;&lt;span style=&quot;font-size:13.3px;color:#333333;font-weight: bold;&quot;&gt;x3&lt;/span&gt;&lt;/span&gt;&lt;/div&gt;" style="text;html=1;resizable=0;labelBackgroundColor=default;align=center;verticalAlign=middle;" parent="ZHRIBIaBG7YJhqpDX4hL-253" vertex="1">
          <mxGeometry x="-0.9209748948399497" relative="1" as="geometry">
            <mxPoint x="13" y="-5" as="offset" />
          </mxGeometry>
        </mxCell>
        <mxCell id="ZHRIBIaBG7YJhqpDX4hL-255" value="" style="html=1;jettySize=18;whiteSpace=wrap;fontSize=13;strokeColor=#3a414a;strokeOpacity=100;strokeWidth=0.8;rounded=1;arcSize=12;edgeStyle=orthogonalEdgeStyle;startArrow=none;endArrow=none;lucidId=-.DqYtDIdAJy;" parent="ZHRIBIaBG7YJhqpDX4hL-263" edge="1">
          <mxGeometry width="100" height="100" relative="1" as="geometry">
            <Array as="points" />
            <mxPoint x="400" y="135" as="sourcePoint" />
            <mxPoint x="400" as="targetPoint" />
          </mxGeometry>
        </mxCell>
        <mxCell id="ZHRIBIaBG7YJhqpDX4hL-256" value="&lt;div style=&quot;display: flex; justify-content: center; text-align: center; align-items: baseline; font-size: 0; line-height: 1.25;margin-top: -2px;&quot;&gt;&lt;span&gt;&lt;span style=&quot;font-size:13.3px;color:#333333;font-weight: bold;&quot;&gt;x2&lt;/span&gt;&lt;/span&gt;&lt;/div&gt;" style="text;html=1;resizable=0;labelBackgroundColor=default;align=center;verticalAlign=middle;" parent="ZHRIBIaBG7YJhqpDX4hL-255" vertex="1">
          <mxGeometry x="-0.9209748948399497" relative="1" as="geometry">
            <mxPoint x="13" y="-5" as="offset" />
          </mxGeometry>
        </mxCell>
        <mxCell id="ZHRIBIaBG7YJhqpDX4hL-257" value="" style="html=1;jettySize=18;whiteSpace=wrap;fontSize=13;strokeColor=#3a414a;strokeOpacity=100;strokeWidth=0.8;rounded=1;arcSize=12;edgeStyle=orthogonalEdgeStyle;startArrow=none;endArrow=none;lucidId=-.DqYtDIdAJy;" parent="ZHRIBIaBG7YJhqpDX4hL-263" edge="1">
          <mxGeometry width="100" height="100" relative="1" as="geometry">
            <Array as="points" />
            <mxPoint x="430" y="135" as="sourcePoint" />
            <mxPoint x="430" as="targetPoint" />
          </mxGeometry>
        </mxCell>
        <mxCell id="ZHRIBIaBG7YJhqpDX4hL-258" value="&lt;div style=&quot;display: flex; justify-content: center; text-align: center; align-items: baseline; font-size: 0; line-height: 1.25;margin-top: -2px;&quot;&gt;&lt;span&gt;&lt;span style=&quot;font-size:13.3px;color:#333333;font-weight: bold;&quot;&gt;x1&lt;/span&gt;&lt;/span&gt;&lt;/div&gt;" style="text;html=1;resizable=0;labelBackgroundColor=default;align=center;verticalAlign=middle;" parent="ZHRIBIaBG7YJhqpDX4hL-257" vertex="1">
          <mxGeometry x="-0.9209748948399497" relative="1" as="geometry">
            <mxPoint x="13" y="-5" as="offset" />
          </mxGeometry>
        </mxCell>
        <mxCell id="ZHRIBIaBG7YJhqpDX4hL-259" value="" style="html=1;jettySize=18;whiteSpace=wrap;fontSize=13;strokeColor=#3a414a;strokeOpacity=100;strokeWidth=0.8;rounded=1;arcSize=12;edgeStyle=orthogonalEdgeStyle;startArrow=none;endArrow=none;lucidId=-.DqYtDIdAJy;" parent="ZHRIBIaBG7YJhqpDX4hL-263" edge="1">
          <mxGeometry width="100" height="100" relative="1" as="geometry">
            <Array as="points" />
            <mxPoint x="460" y="135" as="sourcePoint" />
            <mxPoint x="460" as="targetPoint" />
          </mxGeometry>
        </mxCell>
        <mxCell id="ZHRIBIaBG7YJhqpDX4hL-260" value="&lt;div style=&quot;display: flex; justify-content: center; text-align: center; align-items: baseline; font-size: 0; line-height: 1.25;margin-top: -2px;&quot;&gt;&lt;span&gt;&lt;span style=&quot;font-size:13.3px;color:#333333;font-weight: bold;&quot;&gt;x0&lt;/span&gt;&lt;/span&gt;&lt;/div&gt;" style="text;html=1;resizable=0;labelBackgroundColor=default;align=center;verticalAlign=middle;" parent="ZHRIBIaBG7YJhqpDX4hL-259" vertex="1">
          <mxGeometry x="-0.9209748948399497" relative="1" as="geometry">
            <mxPoint x="13" y="-5" as="offset" />
          </mxGeometry>
        </mxCell>
        <mxCell id="ZHRIBIaBG7YJhqpDX4hL-262" value="" style="group" parent="ZHRIBIaBG7YJhqpDX4hL-263" vertex="1" connectable="0">
          <mxGeometry y="135" width="470" height="73.5" as="geometry" />
        </mxCell>
        <mxCell id="ZHRIBIaBG7YJhqpDX4hL-379" style="edgeStyle=orthogonalEdgeStyle;rounded=0;orthogonalLoop=1;jettySize=auto;html=1;exitX=0;exitY=0.5;exitDx=0;exitDy=0;endArrow=none;endFill=0;" parent="ZHRIBIaBG7YJhqpDX4hL-262" source="ZHRIBIaBG7YJhqpDX4hL-216" edge="1">
          <mxGeometry relative="1" as="geometry">
            <mxPoint x="-230" y="37" as="targetPoint" />
          </mxGeometry>
        </mxCell>
        <mxCell id="ZHRIBIaBG7YJhqpDX4hL-216" value="Pulse Sequencer&lt;div&gt;Outputs bitstring:&lt;br&gt;x&lt;sub&gt;0&lt;/sub&gt;&lt;span style=&quot;background-color: initial;&quot;&gt;x&lt;/span&gt;&lt;sub style=&quot;background-color: initial;&quot;&gt;1&lt;/sub&gt;&lt;span style=&quot;background-color: initial;&quot;&gt;x&lt;/span&gt;&lt;sub style=&quot;background-color: initial;&quot;&gt;2&lt;/sub&gt;&lt;span style=&quot;background-color: initial;&quot;&gt;x&lt;/span&gt;&lt;sub style=&quot;background-color: initial;&quot;&gt;3&lt;/sub&gt;&lt;span style=&quot;background-color: initial;&quot;&gt;x&lt;/span&gt;&lt;sub style=&quot;background-color: initial;&quot;&gt;4&lt;/sub&gt;&lt;span style=&quot;background-color: initial;&quot;&gt;x&lt;/span&gt;&lt;sub style=&quot;background-color: initial;&quot;&gt;5&lt;/sub&gt;&lt;span style=&quot;background-color: initial;&quot;&gt;x&lt;/span&gt;&lt;sub style=&quot;background-color: initial;&quot;&gt;6&lt;/sub&gt;&lt;span style=&quot;background-color: initial;&quot;&gt;x&lt;/span&gt;&lt;sub style=&quot;background-color: initial;&quot;&gt;7&lt;/sub&gt;&lt;span style=&quot;background-color: initial;&quot;&gt;x&lt;/span&gt;&lt;sub style=&quot;background-color: initial;&quot;&gt;8&lt;/sub&gt;&lt;span style=&quot;background-color: initial;&quot;&gt;x&lt;/span&gt;&lt;sub style=&quot;background-color: initial;&quot;&gt;9&lt;/sub&gt;&lt;span style=&quot;background-color: initial;&quot;&gt;x&lt;/span&gt;&lt;sub style=&quot;background-color: initial;&quot;&gt;10&lt;/sub&gt;&lt;span style=&quot;background-color: initial;&quot;&gt;x&lt;/span&gt;&lt;sub style=&quot;background-color: initial;&quot;&gt;11&lt;/sub&gt;&lt;span style=&quot;background-color: initial;&quot;&gt;x&lt;/span&gt;&lt;sub style=&quot;background-color: initial;&quot;&gt;12&lt;/sub&gt;&lt;span style=&quot;background-color: initial;&quot;&gt;x&lt;/span&gt;&lt;sub style=&quot;background-color: initial;&quot;&gt;13&lt;/sub&gt;&lt;span style=&quot;background-color: initial;&quot;&gt;x&lt;/span&gt;&lt;sub style=&quot;background-color: initial;&quot;&gt;14&lt;/sub&gt;&lt;span style=&quot;background-color: initial;&quot;&gt;x&lt;/span&gt;&lt;sub style=&quot;background-color: initial;&quot;&gt;15&lt;/sub&gt;&lt;/div&gt;" style="html=1;overflow=block;blockSpacing=1;whiteSpace=wrap;fontSize=16.7;spacing=3.8;strokeColor=#000000;rounded=1;absoluteArcSize=1;arcSize=9;fillColor=#FFFFFF;strokeWidth=NaN;lucidId=G9Dqy5k~GApw;" parent="ZHRIBIaBG7YJhqpDX4hL-262" vertex="1">
          <mxGeometry width="470" height="73.5" as="geometry" />
        </mxCell>
        <mxCell id="ZHRIBIaBG7YJhqpDX4hL-202" value="PIC" style="html=1;overflow=block;blockSpacing=1;whiteSpace=wrap;fontSize=16.7;fontColor=#3a414a;spacing=9;strokeColor=#000000;strokeOpacity=100;fillOpacity=100;rounded=1;absoluteArcSize=1;arcSize=9;fillColor=#6f7681;strokeWidth=0.8;lucidId=bwoseIxtghlV;" parent="ZHRIBIaBG7YJhqpDX4hL-262" vertex="1">
          <mxGeometry y="22.25" width="55" height="29" as="geometry" />
        </mxCell>
        <mxCell id="ZHRIBIaBG7YJhqpDX4hL-275" value="" style="endArrow=none;html=1;rounded=0;" parent="1" edge="1">
          <mxGeometry width="50" height="50" relative="1" as="geometry">
            <mxPoint x="310" y="930" as="sourcePoint" />
            <mxPoint x="310" y="840" as="targetPoint" />
          </mxGeometry>
        </mxCell>
        <mxCell id="ZHRIBIaBG7YJhqpDX4hL-291" value="" style="endArrow=none;html=1;rounded=0;" parent="1" edge="1">
          <mxGeometry width="50" height="50" relative="1" as="geometry">
            <mxPoint x="400" y="820" as="sourcePoint" />
            <mxPoint x="600" y="820" as="targetPoint" />
          </mxGeometry>
        </mxCell>
        <mxCell id="ZHRIBIaBG7YJhqpDX4hL-292" value="" style="endArrow=none;html=1;rounded=0;" parent="1" edge="1">
          <mxGeometry width="50" height="50" relative="1" as="geometry">
            <mxPoint x="400" y="930" as="sourcePoint" />
            <mxPoint x="400" y="820" as="targetPoint" />
          </mxGeometry>
        </mxCell>
        <mxCell id="ZHRIBIaBG7YJhqpDX4hL-295" value="" style="endArrow=none;html=1;rounded=0;" parent="1" edge="1">
          <mxGeometry width="50" height="50" relative="1" as="geometry">
            <mxPoint x="430" y="920" as="sourcePoint" />
            <mxPoint x="430" y="840" as="targetPoint" />
          </mxGeometry>
        </mxCell>
        <mxCell id="ZHRIBIaBG7YJhqpDX4hL-299" value="" style="endArrow=none;html=1;rounded=0;" parent="1" edge="1">
          <mxGeometry width="50" height="50" relative="1" as="geometry">
            <mxPoint x="40" y="820" as="sourcePoint" />
            <mxPoint x="340" y="820" as="targetPoint" />
          </mxGeometry>
        </mxCell>
        <mxCell id="ZHRIBIaBG7YJhqpDX4hL-180" value="Standalone&lt;div&gt;&amp;nbsp;DDS Array&lt;/div&gt;" style="rounded=1;whiteSpace=wrap;html=1;fillColor=none;shadow=1;strokeColor=none;" parent="1" vertex="1">
          <mxGeometry x="60" y="550" width="67.5" height="50" as="geometry" />
        </mxCell>
        <mxCell id="ZHRIBIaBG7YJhqpDX4hL-342" value="" style="group" parent="1" vertex="1" connectable="0">
          <mxGeometry x="600" y="230" width="180" height="90" as="geometry" />
        </mxCell>
        <mxCell id="ZHRIBIaBG7YJhqpDX4hL-315" value="" style="endArrow=none;html=1;rounded=0;" parent="ZHRIBIaBG7YJhqpDX4hL-342" edge="1">
          <mxGeometry width="50" height="50" relative="1" as="geometry">
            <mxPoint x="20" y="90" as="sourcePoint" />
            <mxPoint x="20" y="50" as="targetPoint" />
          </mxGeometry>
        </mxCell>
        <mxCell id="ZHRIBIaBG7YJhqpDX4hL-316" value="1" style="edgeLabel;html=1;align=center;verticalAlign=middle;resizable=0;points=[];" parent="ZHRIBIaBG7YJhqpDX4hL-315" vertex="1" connectable="0">
          <mxGeometry x="0.1833" y="-1" relative="1" as="geometry">
            <mxPoint x="5" y="-7" as="offset" />
          </mxGeometry>
        </mxCell>
        <mxCell id="ZHRIBIaBG7YJhqpDX4hL-317" value="" style="endArrow=none;html=1;rounded=0;" parent="ZHRIBIaBG7YJhqpDX4hL-342" edge="1">
          <mxGeometry width="50" height="50" relative="1" as="geometry">
            <mxPoint x="40" y="90" as="sourcePoint" />
            <mxPoint x="40" y="50" as="targetPoint" />
          </mxGeometry>
        </mxCell>
        <mxCell id="ZHRIBIaBG7YJhqpDX4hL-318" value="2" style="edgeLabel;html=1;align=center;verticalAlign=middle;resizable=0;points=[];" parent="ZHRIBIaBG7YJhqpDX4hL-317" vertex="1" connectable="0">
          <mxGeometry x="0.1833" y="-1" relative="1" as="geometry">
            <mxPoint x="5" y="-7" as="offset" />
          </mxGeometry>
        </mxCell>
        <mxCell id="ZHRIBIaBG7YJhqpDX4hL-329" value="" style="endArrow=none;html=1;rounded=0;" parent="ZHRIBIaBG7YJhqpDX4hL-342" edge="1">
          <mxGeometry width="50" height="50" relative="1" as="geometry">
            <mxPoint x="60" y="90" as="sourcePoint" />
            <mxPoint x="60" y="50" as="targetPoint" />
          </mxGeometry>
        </mxCell>
        <mxCell id="ZHRIBIaBG7YJhqpDX4hL-330" value="3" style="edgeLabel;html=1;align=center;verticalAlign=middle;resizable=0;points=[];" parent="ZHRIBIaBG7YJhqpDX4hL-329" vertex="1" connectable="0">
          <mxGeometry x="0.1833" y="-1" relative="1" as="geometry">
            <mxPoint x="5" y="-7" as="offset" />
          </mxGeometry>
        </mxCell>
        <mxCell id="ZHRIBIaBG7YJhqpDX4hL-331" value="" style="endArrow=none;html=1;rounded=0;" parent="ZHRIBIaBG7YJhqpDX4hL-342" edge="1">
          <mxGeometry width="50" height="50" relative="1" as="geometry">
            <mxPoint x="80" y="90" as="sourcePoint" />
            <mxPoint x="80" y="50" as="targetPoint" />
          </mxGeometry>
        </mxCell>
        <mxCell id="ZHRIBIaBG7YJhqpDX4hL-332" value="4" style="edgeLabel;html=1;align=center;verticalAlign=middle;resizable=0;points=[];" parent="ZHRIBIaBG7YJhqpDX4hL-331" vertex="1" connectable="0">
          <mxGeometry x="0.1833" y="-1" relative="1" as="geometry">
            <mxPoint x="5" y="-7" as="offset" />
          </mxGeometry>
        </mxCell>
        <mxCell id="ZHRIBIaBG7YJhqpDX4hL-333" value="" style="endArrow=none;html=1;rounded=0;" parent="ZHRIBIaBG7YJhqpDX4hL-342" edge="1">
          <mxGeometry width="50" height="50" relative="1" as="geometry">
            <mxPoint x="100" y="90" as="sourcePoint" />
            <mxPoint x="100" y="50" as="targetPoint" />
          </mxGeometry>
        </mxCell>
        <mxCell id="ZHRIBIaBG7YJhqpDX4hL-334" value="5" style="edgeLabel;html=1;align=center;verticalAlign=middle;resizable=0;points=[];" parent="ZHRIBIaBG7YJhqpDX4hL-333" vertex="1" connectable="0">
          <mxGeometry x="0.1833" y="-1" relative="1" as="geometry">
            <mxPoint x="5" y="-7" as="offset" />
          </mxGeometry>
        </mxCell>
        <mxCell id="ZHRIBIaBG7YJhqpDX4hL-335" value="" style="endArrow=none;html=1;rounded=0;" parent="ZHRIBIaBG7YJhqpDX4hL-342" edge="1">
          <mxGeometry width="50" height="50" relative="1" as="geometry">
            <mxPoint x="120" y="90" as="sourcePoint" />
            <mxPoint x="120" y="50" as="targetPoint" />
          </mxGeometry>
        </mxCell>
        <mxCell id="ZHRIBIaBG7YJhqpDX4hL-336" value="6" style="edgeLabel;html=1;align=center;verticalAlign=middle;resizable=0;points=[];" parent="ZHRIBIaBG7YJhqpDX4hL-335" vertex="1" connectable="0">
          <mxGeometry x="0.1833" y="-1" relative="1" as="geometry">
            <mxPoint x="5" y="-7" as="offset" />
          </mxGeometry>
        </mxCell>
        <mxCell id="ZHRIBIaBG7YJhqpDX4hL-337" value="" style="endArrow=none;html=1;rounded=0;" parent="ZHRIBIaBG7YJhqpDX4hL-342" edge="1">
          <mxGeometry width="50" height="50" relative="1" as="geometry">
            <mxPoint x="140" y="90" as="sourcePoint" />
            <mxPoint x="140" y="50" as="targetPoint" />
          </mxGeometry>
        </mxCell>
        <mxCell id="ZHRIBIaBG7YJhqpDX4hL-338" value="7" style="edgeLabel;html=1;align=center;verticalAlign=middle;resizable=0;points=[];" parent="ZHRIBIaBG7YJhqpDX4hL-337" vertex="1" connectable="0">
          <mxGeometry x="0.1833" y="-1" relative="1" as="geometry">
            <mxPoint x="5" y="-7" as="offset" />
          </mxGeometry>
        </mxCell>
        <mxCell id="ZHRIBIaBG7YJhqpDX4hL-339" value="" style="endArrow=none;html=1;rounded=0;" parent="ZHRIBIaBG7YJhqpDX4hL-342" edge="1">
          <mxGeometry width="50" height="50" relative="1" as="geometry">
            <mxPoint x="160" y="90" as="sourcePoint" />
            <mxPoint x="160" y="50" as="targetPoint" />
          </mxGeometry>
        </mxCell>
        <mxCell id="ZHRIBIaBG7YJhqpDX4hL-340" value="8" style="edgeLabel;html=1;align=center;verticalAlign=middle;resizable=0;points=[];" parent="ZHRIBIaBG7YJhqpDX4hL-339" vertex="1" connectable="0">
          <mxGeometry x="0.1833" y="-1" relative="1" as="geometry">
            <mxPoint x="5" y="-7" as="offset" />
          </mxGeometry>
        </mxCell>
        <mxCell id="ZHRIBIaBG7YJhqpDX4hL-312" value="&lt;font style=&quot;font-size: 17px;&quot;&gt;QuTau&lt;/font&gt;" style="rounded=1;whiteSpace=wrap;html=1;fillColor=#CCE5FF;" parent="ZHRIBIaBG7YJhqpDX4hL-342" vertex="1">
          <mxGeometry width="180" height="50" as="geometry" />
        </mxCell>
        <mxCell id="ZHRIBIaBG7YJhqpDX4hL-344" value="" style="endArrow=none;html=1;rounded=0;" parent="1" edge="1">
          <mxGeometry width="50" height="50" relative="1" as="geometry">
            <mxPoint x="760" y="920" as="sourcePoint" />
            <mxPoint x="760" y="320" as="targetPoint" />
          </mxGeometry>
        </mxCell>
        <mxCell id="QhlrPP7_RP2ZhW-mvpU6-44" value="PS&amp;nbsp;&lt;div&gt;Sync&lt;/div&gt;" style="edgeLabel;html=1;align=center;verticalAlign=middle;resizable=0;points=[];" parent="ZHRIBIaBG7YJhqpDX4hL-344" vertex="1" connectable="0">
          <mxGeometry x="0.3923" y="-2" relative="1" as="geometry">
            <mxPoint x="18" y="-22" as="offset" />
          </mxGeometry>
        </mxCell>
        <mxCell id="ZHRIBIaBG7YJhqpDX4hL-426" style="edgeStyle=orthogonalEdgeStyle;rounded=0;orthogonalLoop=1;jettySize=auto;html=1;endArrow=none;endFill=0;" parent="1" edge="1">
          <mxGeometry relative="1" as="geometry">
            <mxPoint x="200" y="310" as="targetPoint" />
            <mxPoint x="280" y="280" as="sourcePoint" />
            <Array as="points">
              <mxPoint x="280" y="310" />
            </Array>
          </mxGeometry>
        </mxCell>
        <mxCell id="ZHRIBIaBG7YJhqpDX4hL-427" value="RF Attenuation" style="edgeLabel;html=1;align=center;verticalAlign=middle;resizable=0;points=[];" parent="ZHRIBIaBG7YJhqpDX4hL-426" vertex="1" connectable="0">
          <mxGeometry x="0.1887" y="1" relative="1" as="geometry">
            <mxPoint x="-5" y="9" as="offset" />
          </mxGeometry>
        </mxCell>
        <mxCell id="ZHRIBIaBG7YJhqpDX4hL-363" value="" style="group" parent="1" vertex="1" connectable="0">
          <mxGeometry x="370" y="210" width="165" height="71" as="geometry" />
        </mxCell>
        <mxCell id="ZHRIBIaBG7YJhqpDX4hL-348" value="" style="rounded=0;whiteSpace=wrap;html=1;" parent="ZHRIBIaBG7YJhqpDX4hL-363" vertex="1">
          <mxGeometry x="5" y="21" width="160" height="50" as="geometry" />
        </mxCell>
        <mxCell id="ZHRIBIaBG7YJhqpDX4hL-369" style="edgeStyle=orthogonalEdgeStyle;rounded=0;orthogonalLoop=1;jettySize=auto;html=1;exitX=0.75;exitY=1;exitDx=0;exitDy=0;endArrow=none;endFill=0;" parent="ZHRIBIaBG7YJhqpDX4hL-363" source="ZHRIBIaBG7YJhqpDX4hL-359" edge="1">
          <mxGeometry relative="1" as="geometry">
            <mxPoint x="250" y="110" as="targetPoint" />
            <Array as="points">
              <mxPoint x="141" y="110" />
            </Array>
          </mxGeometry>
        </mxCell>
        <mxCell id="ZHRIBIaBG7YJhqpDX4hL-359" value="" style="rounded=1;whiteSpace=wrap;html=1;fillColor=#CCFF99;" parent="ZHRIBIaBG7YJhqpDX4hL-363" vertex="1">
          <mxGeometry x="95" y="33.5" width="61.25" height="22.5" as="geometry" />
        </mxCell>
        <mxCell id="ZHRIBIaBG7YJhqpDX4hL-370" style="edgeStyle=orthogonalEdgeStyle;rounded=0;orthogonalLoop=1;jettySize=auto;html=1;exitX=1;exitY=0.5;exitDx=0;exitDy=0;exitPerimeter=0;endArrow=none;endFill=0;" parent="ZHRIBIaBG7YJhqpDX4hL-363" source="ZHRIBIaBG7YJhqpDX4hL-351" edge="1">
          <mxGeometry relative="1" as="geometry">
            <mxPoint x="270" y="110" as="targetPoint" />
            <Array as="points">
              <mxPoint x="109" y="120" />
              <mxPoint x="270" y="120" />
            </Array>
          </mxGeometry>
        </mxCell>
        <mxCell id="ZHRIBIaBG7YJhqpDX4hL-351" value="2" style="shape=or;whiteSpace=wrap;html=1;rotation=90;fillColor=#E6E6E6;" parent="ZHRIBIaBG7YJhqpDX4hL-363" vertex="1">
          <mxGeometry x="102.5" y="35" width="12.5" height="25" as="geometry" />
        </mxCell>
        <mxCell id="ZHRIBIaBG7YJhqpDX4hL-352" value="1" style="shape=or;whiteSpace=wrap;html=1;rotation=90;fillColor=#E6E6E6;" parent="ZHRIBIaBG7YJhqpDX4hL-363" vertex="1">
          <mxGeometry x="136" y="35" width="12.5" height="25" as="geometry" />
        </mxCell>
        <mxCell id="ZHRIBIaBG7YJhqpDX4hL-357" value="SSPDs" style="text;html=1;align=center;verticalAlign=middle;whiteSpace=wrap;rounded=0;" parent="ZHRIBIaBG7YJhqpDX4hL-363" vertex="1">
          <mxGeometry width="60" height="30" as="geometry" />
        </mxCell>
        <mxCell id="ZHRIBIaBG7YJhqpDX4hL-360" value="" style="rounded=1;whiteSpace=wrap;html=1;fillColor=#FF9999;" parent="ZHRIBIaBG7YJhqpDX4hL-363" vertex="1">
          <mxGeometry x="15" y="32.75" width="61.25" height="22.5" as="geometry" />
        </mxCell>
        <mxCell id="ZHRIBIaBG7YJhqpDX4hL-372" style="edgeStyle=orthogonalEdgeStyle;rounded=0;orthogonalLoop=1;jettySize=auto;html=1;exitX=1;exitY=0.5;exitDx=0;exitDy=0;exitPerimeter=0;endArrow=none;endFill=0;" parent="ZHRIBIaBG7YJhqpDX4hL-363" source="ZHRIBIaBG7YJhqpDX4hL-361" edge="1">
          <mxGeometry relative="1" as="geometry">
            <mxPoint x="310" y="110" as="targetPoint" />
            <Array as="points">
              <mxPoint x="29" y="140" />
              <mxPoint x="310" y="140" />
            </Array>
          </mxGeometry>
        </mxCell>
        <mxCell id="ZHRIBIaBG7YJhqpDX4hL-361" value="4" style="shape=or;whiteSpace=wrap;html=1;rotation=90;fillColor=#E6E6E6;" parent="ZHRIBIaBG7YJhqpDX4hL-363" vertex="1">
          <mxGeometry x="22.5" y="34.25" width="12.5" height="25" as="geometry" />
        </mxCell>
        <mxCell id="ZHRIBIaBG7YJhqpDX4hL-371" style="edgeStyle=orthogonalEdgeStyle;rounded=0;orthogonalLoop=1;jettySize=auto;html=1;exitX=1;exitY=0.5;exitDx=0;exitDy=0;exitPerimeter=0;endArrow=none;endFill=0;" parent="ZHRIBIaBG7YJhqpDX4hL-363" source="ZHRIBIaBG7YJhqpDX4hL-362" edge="1">
          <mxGeometry relative="1" as="geometry">
            <mxPoint x="290" y="110" as="targetPoint" />
            <Array as="points">
              <mxPoint x="62" y="130" />
              <mxPoint x="290" y="130" />
            </Array>
          </mxGeometry>
        </mxCell>
        <mxCell id="ZHRIBIaBG7YJhqpDX4hL-362" value="3" style="shape=or;whiteSpace=wrap;html=1;rotation=90;fillColor=#E6E6E6;" parent="ZHRIBIaBG7YJhqpDX4hL-363" vertex="1">
          <mxGeometry x="56" y="34.25" width="12.5" height="25" as="geometry" />
        </mxCell>
        <mxCell id="ZHRIBIaBG7YJhqpDX4hL-364" value="&lt;font style=&quot;font-size: 8px;&quot;&gt;866 nm&lt;/font&gt;" style="text;html=1;align=center;verticalAlign=middle;whiteSpace=wrap;rounded=0;" parent="ZHRIBIaBG7YJhqpDX4hL-363" vertex="1">
          <mxGeometry x="0.75" y="11" width="60" height="30" as="geometry" />
        </mxCell>
        <mxCell id="ZHRIBIaBG7YJhqpDX4hL-365" value="&lt;font style=&quot;font-size: 8px;&quot;&gt;1550 nm&lt;/font&gt;" style="text;html=1;align=center;verticalAlign=middle;whiteSpace=wrap;rounded=0;" parent="ZHRIBIaBG7YJhqpDX4hL-363" vertex="1">
          <mxGeometry x="79.75" y="11" width="60" height="30" as="geometry" />
        </mxCell>
        <mxCell id="ZHRIBIaBG7YJhqpDX4hL-377" style="edgeStyle=orthogonalEdgeStyle;rounded=0;orthogonalLoop=1;jettySize=auto;html=1;exitX=0.5;exitY=1;exitDx=0;exitDy=0;endArrow=none;endFill=0;entryX=0;entryY=0.5;entryDx=0;entryDy=0;" parent="1" source="ZHRIBIaBG7YJhqpDX4hL-376" target="ZHRIBIaBG7YJhqpDX4hL-378" edge="1">
          <mxGeometry relative="1" as="geometry">
            <mxPoint x="-40" y="1070" as="targetPoint" />
          </mxGeometry>
        </mxCell>
        <mxCell id="ZHRIBIaBG7YJhqpDX4hL-383" style="edgeStyle=orthogonalEdgeStyle;rounded=0;orthogonalLoop=1;jettySize=auto;html=1;exitX=0.75;exitY=1;exitDx=0;exitDy=0;entryX=0;entryY=0.5;entryDx=0;entryDy=0;endArrow=none;endFill=0;" parent="1" source="ZHRIBIaBG7YJhqpDX4hL-376" target="ZHRIBIaBG7YJhqpDX4hL-382" edge="1">
          <mxGeometry relative="1" as="geometry">
            <mxPoint x="170" y="560" as="targetPoint" />
          </mxGeometry>
        </mxCell>
        <mxCell id="ZHRIBIaBG7YJhqpDX4hL-390" style="edgeStyle=orthogonalEdgeStyle;rounded=0;orthogonalLoop=1;jettySize=auto;html=1;exitX=1;exitY=0.5;exitDx=0;exitDy=0;entryX=0;entryY=0.5;entryDx=0;entryDy=0;endArrow=none;endFill=0;" parent="1" source="ZHRIBIaBG7YJhqpDX4hL-376" target="ZHRIBIaBG7YJhqpDX4hL-388" edge="1">
          <mxGeometry relative="1" as="geometry" />
        </mxCell>
        <mxCell id="ZHRIBIaBG7YJhqpDX4hL-376" value="PC" style="whiteSpace=wrap;html=1;aspect=fixed;fillColor=#666666;" parent="1" vertex="1">
          <mxGeometry x="-80" y="400" width="80" height="80" as="geometry" />
        </mxCell>
        <mxCell id="ZHRIBIaBG7YJhqpDX4hL-378" value="USB Hub 1" style="rounded=0;whiteSpace=wrap;html=1;" parent="1" vertex="1">
          <mxGeometry y="1060" width="70" height="61" as="geometry" />
        </mxCell>
        <mxCell id="ZHRIBIaBG7YJhqpDX4hL-386" style="edgeStyle=orthogonalEdgeStyle;rounded=0;orthogonalLoop=1;jettySize=auto;html=1;exitX=1;exitY=0.25;exitDx=0;exitDy=0;entryX=0.5;entryY=0;entryDx=0;entryDy=0;endArrow=none;endFill=0;" parent="1" source="ZHRIBIaBG7YJhqpDX4hL-382" target="ZHRIBIaBG7YJhqpDX4hL-122" edge="1">
          <mxGeometry relative="1" as="geometry" />
        </mxCell>
        <mxCell id="ZHRIBIaBG7YJhqpDX4hL-382" value="USB Hub 2" style="rounded=0;whiteSpace=wrap;html=1;" parent="1" vertex="1">
          <mxGeometry x="58.75" y="489" width="70" height="61" as="geometry" />
        </mxCell>
        <mxCell id="ZHRIBIaBG7YJhqpDX4hL-385" style="edgeStyle=orthogonalEdgeStyle;rounded=0;orthogonalLoop=1;jettySize=auto;html=1;exitX=0.5;exitY=0;exitDx=0;exitDy=0;entryX=1;entryY=0.75;entryDx=0;entryDy=0;endArrow=none;endFill=0;" parent="1" source="ZHRIBIaBG7YJhqpDX4hL-160" target="ZHRIBIaBG7YJhqpDX4hL-382" edge="1">
          <mxGeometry relative="1" as="geometry" />
        </mxCell>
        <mxCell id="QhlrPP7_RP2ZhW-mvpU6-42" style="edgeStyle=orthogonalEdgeStyle;rounded=0;orthogonalLoop=1;jettySize=auto;html=1;exitX=0.5;exitY=1;exitDx=0;exitDy=0;endArrow=none;endFill=0;" parent="1" source="ZHRIBIaBG7YJhqpDX4hL-388" edge="1">
          <mxGeometry relative="1" as="geometry">
            <mxPoint x="700" y="920" as="targetPoint" />
            <Array as="points">
              <mxPoint x="92" y="480" />
              <mxPoint x="700" y="480" />
            </Array>
          </mxGeometry>
        </mxCell>
        <mxCell id="QhlrPP7_RP2ZhW-mvpU6-45" value="PS End" style="edgeLabel;html=1;align=center;verticalAlign=middle;resizable=0;points=[];" parent="QhlrPP7_RP2ZhW-mvpU6-42" vertex="1" connectable="0">
          <mxGeometry x="0.1059" y="1" relative="1" as="geometry">
            <mxPoint x="-17" y="-9" as="offset" />
          </mxGeometry>
        </mxCell>
        <mxCell id="ZHRIBIaBG7YJhqpDX4hL-388" value="NI DAQ" style="rounded=1;whiteSpace=wrap;html=1;fillColor=#e1d5e7;strokeColor=#9673a6;" parent="1" vertex="1">
          <mxGeometry x="57.5" y="410" width="70" height="60" as="geometry" />
        </mxCell>
        <mxCell id="ZHRIBIaBG7YJhqpDX4hL-392" style="edgeStyle=orthogonalEdgeStyle;rounded=0;orthogonalLoop=1;jettySize=auto;html=1;endArrow=none;endFill=0;" parent="1" source="ZHRIBIaBG7YJhqpDX4hL-391" target="ZHRIBIaBG7YJhqpDX4hL-388" edge="1">
          <mxGeometry relative="1" as="geometry" />
        </mxCell>
        <mxCell id="ZHRIBIaBG7YJhqpDX4hL-393" style="edgeStyle=orthogonalEdgeStyle;rounded=0;orthogonalLoop=1;jettySize=auto;html=1;exitX=1;exitY=0.5;exitDx=0;exitDy=0;endArrow=none;endFill=0;entryX=0.486;entryY=0.218;entryDx=0;entryDy=0;entryPerimeter=0;" parent="1" target="ZHRIBIaBG7YJhqpDX4hL-394" edge="1">
          <mxGeometry relative="1" as="geometry">
            <mxPoint x="735" y="390" as="targetPoint" />
            <mxPoint x="405" y="440" as="sourcePoint" />
          </mxGeometry>
        </mxCell>
        <mxCell id="ZHRIBIaBG7YJhqpDX4hL-391" value="PMT" style="rounded=0;whiteSpace=wrap;html=1;" parent="1" vertex="1">
          <mxGeometry x="370" y="430" width="40" height="20" as="geometry" />
        </mxCell>
        <mxCell id="ZHRIBIaBG7YJhqpDX4hL-396" style="edgeStyle=orthogonalEdgeStyle;rounded=0;orthogonalLoop=1;jettySize=auto;html=1;exitX=1;exitY=0.5;exitDx=0;exitDy=0;exitPerimeter=0;endArrow=none;endFill=0;" parent="1" edge="1">
          <mxGeometry relative="1" as="geometry">
            <mxPoint x="740.0036842105262" y="317.5" as="targetPoint" />
            <mxPoint x="740.0300000000002" y="370" as="sourcePoint" />
          </mxGeometry>
        </mxCell>
        <mxCell id="ZHRIBIaBG7YJhqpDX4hL-399" style="edgeStyle=orthogonalEdgeStyle;rounded=0;orthogonalLoop=1;jettySize=auto;html=1;exitX=0;exitY=0.75;exitDx=0;exitDy=0;exitPerimeter=0;endArrow=none;endFill=0;" parent="1" source="ZHRIBIaBG7YJhqpDX4hL-394" edge="1">
          <mxGeometry relative="1" as="geometry">
            <mxPoint x="730" y="450" as="targetPoint" />
            <Array as="points">
              <mxPoint x="746" y="450" />
            </Array>
          </mxGeometry>
        </mxCell>
        <mxCell id="ZHRIBIaBG7YJhqpDX4hL-394" value="" style="shape=or;whiteSpace=wrap;html=1;rotation=-90;" parent="1" vertex="1">
          <mxGeometry x="733" y="368" width="15" height="20" as="geometry" />
        </mxCell>
        <mxCell id="ZHRIBIaBG7YJhqpDX4hL-397" value="" style="endArrow=none;html=1;rounded=0;" parent="1" edge="1">
          <mxGeometry width="50" height="50" relative="1" as="geometry">
            <mxPoint x="730" y="920" as="sourcePoint" />
            <mxPoint x="730" y="450" as="targetPoint" />
          </mxGeometry>
        </mxCell>
        <mxCell id="QhlrPP7_RP2ZhW-mvpU6-43" value="PMT&lt;div&gt;Gate&lt;/div&gt;" style="edgeLabel;html=1;align=center;verticalAlign=middle;resizable=0;points=[];" parent="ZHRIBIaBG7YJhqpDX4hL-397" vertex="1" connectable="0">
          <mxGeometry x="0.7868" y="2" relative="1" as="geometry">
            <mxPoint x="15" y="-20" as="offset" />
          </mxGeometry>
        </mxCell>
        <mxCell id="ZHRIBIaBG7YJhqpDX4hL-425" value="" style="group" parent="1" vertex="1" connectable="0">
          <mxGeometry x="40" y="240" width="180" height="70" as="geometry" />
        </mxCell>
        <mxCell id="QhlrPP7_RP2ZhW-mvpU6-29" style="edgeStyle=orthogonalEdgeStyle;rounded=0;orthogonalLoop=1;jettySize=auto;html=1;exitX=0;exitY=0.25;exitDx=0;exitDy=0;" parent="ZHRIBIaBG7YJhqpDX4hL-425" source="ZHRIBIaBG7YJhqpDX4hL-89" edge="1">
          <mxGeometry relative="1" as="geometry">
            <mxPoint x="-50" y="11" as="targetPoint" />
          </mxGeometry>
        </mxCell>
        <mxCell id="QhlrPP7_RP2ZhW-mvpU6-31" value="D1" style="edgeLabel;html=1;align=center;verticalAlign=middle;resizable=0;points=[];" parent="QhlrPP7_RP2ZhW-mvpU6-29" vertex="1" connectable="0">
          <mxGeometry x="-0.3289" relative="1" as="geometry">
            <mxPoint x="7" y="-9" as="offset" />
          </mxGeometry>
        </mxCell>
        <mxCell id="QhlrPP7_RP2ZhW-mvpU6-35" value="Oven" style="edgeLabel;html=1;align=center;verticalAlign=middle;resizable=0;points=[];" parent="QhlrPP7_RP2ZhW-mvpU6-29" vertex="1" connectable="0">
          <mxGeometry x="0.7879" y="-1" relative="1" as="geometry">
            <mxPoint x="-15" y="-10" as="offset" />
          </mxGeometry>
        </mxCell>
        <mxCell id="ZHRIBIaBG7YJhqpDX4hL-89" value="RedLabs DAC" style="html=1;overflow=block;blockSpacing=1;whiteSpace=wrap;fontSize=16.7;spacing=3.8;strokeColor=#000000;rounded=1;absoluteArcSize=1;arcSize=9;fillColor=#FF6666;strokeWidth=NaN;lucidId=dhEqdU7u_n6c;" parent="ZHRIBIaBG7YJhqpDX4hL-425" vertex="1">
          <mxGeometry width="180" height="45" as="geometry" />
        </mxCell>
        <mxCell id="ZHRIBIaBG7YJhqpDX4hL-424" value="" style="group" parent="ZHRIBIaBG7YJhqpDX4hL-425" vertex="1" connectable="0">
          <mxGeometry x="20" y="45" width="139.69" height="25" as="geometry" />
        </mxCell>
        <mxCell id="ZHRIBIaBG7YJhqpDX4hL-401" value="" style="endArrow=none;html=1;rounded=0;" parent="ZHRIBIaBG7YJhqpDX4hL-424" edge="1">
          <mxGeometry width="50" height="50" relative="1" as="geometry">
            <mxPoint y="25" as="sourcePoint" />
            <mxPoint as="targetPoint" />
            <Array as="points">
              <mxPoint y="20" />
            </Array>
          </mxGeometry>
        </mxCell>
        <mxCell id="ZHRIBIaBG7YJhqpDX4hL-409" value="A0" style="edgeLabel;html=1;align=center;verticalAlign=middle;resizable=0;points=[];" parent="ZHRIBIaBG7YJhqpDX4hL-401" vertex="1" connectable="0">
          <mxGeometry x="0.5877" y="-1" relative="1" as="geometry">
            <mxPoint x="9" y="5" as="offset" />
          </mxGeometry>
        </mxCell>
        <mxCell id="ZHRIBIaBG7YJhqpDX4hL-410" value="" style="endArrow=none;html=1;rounded=0;" parent="ZHRIBIaBG7YJhqpDX4hL-424" edge="1">
          <mxGeometry width="50" height="50" relative="1" as="geometry">
            <mxPoint x="20" y="25" as="sourcePoint" />
            <mxPoint x="20" as="targetPoint" />
            <Array as="points">
              <mxPoint x="20" y="20" />
            </Array>
          </mxGeometry>
        </mxCell>
        <mxCell id="ZHRIBIaBG7YJhqpDX4hL-411" value="A1" style="edgeLabel;html=1;align=center;verticalAlign=middle;resizable=0;points=[];" parent="ZHRIBIaBG7YJhqpDX4hL-410" vertex="1" connectable="0">
          <mxGeometry x="0.5877" y="-1" relative="1" as="geometry">
            <mxPoint x="9" y="5" as="offset" />
          </mxGeometry>
        </mxCell>
        <mxCell id="ZHRIBIaBG7YJhqpDX4hL-412" value="" style="endArrow=none;html=1;rounded=0;" parent="ZHRIBIaBG7YJhqpDX4hL-424" edge="1">
          <mxGeometry width="50" height="50" relative="1" as="geometry">
            <mxPoint x="40" y="25" as="sourcePoint" />
            <mxPoint x="40" as="targetPoint" />
            <Array as="points">
              <mxPoint x="40" y="20" />
            </Array>
          </mxGeometry>
        </mxCell>
        <mxCell id="ZHRIBIaBG7YJhqpDX4hL-413" value="A2" style="edgeLabel;html=1;align=center;verticalAlign=middle;resizable=0;points=[];" parent="ZHRIBIaBG7YJhqpDX4hL-412" vertex="1" connectable="0">
          <mxGeometry x="0.5877" y="-1" relative="1" as="geometry">
            <mxPoint x="9" y="5" as="offset" />
          </mxGeometry>
        </mxCell>
        <mxCell id="ZHRIBIaBG7YJhqpDX4hL-414" value="" style="endArrow=none;html=1;rounded=0;" parent="ZHRIBIaBG7YJhqpDX4hL-424" edge="1">
          <mxGeometry width="50" height="50" relative="1" as="geometry">
            <mxPoint x="60" y="25" as="sourcePoint" />
            <mxPoint x="60" as="targetPoint" />
            <Array as="points">
              <mxPoint x="60" y="20" />
            </Array>
          </mxGeometry>
        </mxCell>
        <mxCell id="ZHRIBIaBG7YJhqpDX4hL-415" value="A3" style="edgeLabel;html=1;align=center;verticalAlign=middle;resizable=0;points=[];" parent="ZHRIBIaBG7YJhqpDX4hL-414" vertex="1" connectable="0">
          <mxGeometry x="0.5877" y="-1" relative="1" as="geometry">
            <mxPoint x="9" y="5" as="offset" />
          </mxGeometry>
        </mxCell>
        <mxCell id="ZHRIBIaBG7YJhqpDX4hL-416" value="" style="endArrow=none;html=1;rounded=0;" parent="ZHRIBIaBG7YJhqpDX4hL-424" edge="1">
          <mxGeometry width="50" height="50" relative="1" as="geometry">
            <mxPoint x="79.69" y="25" as="sourcePoint" />
            <mxPoint x="79.69" as="targetPoint" />
            <Array as="points">
              <mxPoint x="79.69" y="20" />
            </Array>
          </mxGeometry>
        </mxCell>
        <mxCell id="ZHRIBIaBG7YJhqpDX4hL-417" value="A4" style="edgeLabel;html=1;align=center;verticalAlign=middle;resizable=0;points=[];" parent="ZHRIBIaBG7YJhqpDX4hL-416" vertex="1" connectable="0">
          <mxGeometry x="0.5877" y="-1" relative="1" as="geometry">
            <mxPoint x="9" y="5" as="offset" />
          </mxGeometry>
        </mxCell>
        <mxCell id="ZHRIBIaBG7YJhqpDX4hL-418" value="" style="endArrow=none;html=1;rounded=0;" parent="ZHRIBIaBG7YJhqpDX4hL-424" edge="1">
          <mxGeometry width="50" height="50" relative="1" as="geometry">
            <mxPoint x="99.69" y="25" as="sourcePoint" />
            <mxPoint x="99.69" as="targetPoint" />
            <Array as="points">
              <mxPoint x="99.69" y="20" />
            </Array>
          </mxGeometry>
        </mxCell>
        <mxCell id="ZHRIBIaBG7YJhqpDX4hL-419" value="A5" style="edgeLabel;html=1;align=center;verticalAlign=middle;resizable=0;points=[];" parent="ZHRIBIaBG7YJhqpDX4hL-418" vertex="1" connectable="0">
          <mxGeometry x="0.5877" y="-1" relative="1" as="geometry">
            <mxPoint x="9" y="5" as="offset" />
          </mxGeometry>
        </mxCell>
        <mxCell id="ZHRIBIaBG7YJhqpDX4hL-420" value="" style="endArrow=none;html=1;rounded=0;" parent="ZHRIBIaBG7YJhqpDX4hL-424" edge="1">
          <mxGeometry width="50" height="50" relative="1" as="geometry">
            <mxPoint x="119.69" y="25" as="sourcePoint" />
            <mxPoint x="119.69" as="targetPoint" />
            <Array as="points">
              <mxPoint x="119.69" y="20" />
            </Array>
          </mxGeometry>
        </mxCell>
        <mxCell id="ZHRIBIaBG7YJhqpDX4hL-421" value="A6" style="edgeLabel;html=1;align=center;verticalAlign=middle;resizable=0;points=[];" parent="ZHRIBIaBG7YJhqpDX4hL-420" vertex="1" connectable="0">
          <mxGeometry x="0.5877" y="-1" relative="1" as="geometry">
            <mxPoint x="9" y="5" as="offset" />
          </mxGeometry>
        </mxCell>
        <mxCell id="ZHRIBIaBG7YJhqpDX4hL-422" value="" style="endArrow=none;html=1;rounded=0;" parent="ZHRIBIaBG7YJhqpDX4hL-424" edge="1">
          <mxGeometry width="50" height="50" relative="1" as="geometry">
            <mxPoint x="139.69" y="25" as="sourcePoint" />
            <mxPoint x="139.69" as="targetPoint" />
            <Array as="points">
              <mxPoint x="139.69" y="20" />
            </Array>
          </mxGeometry>
        </mxCell>
        <mxCell id="ZHRIBIaBG7YJhqpDX4hL-423" value="A7" style="edgeLabel;html=1;align=center;verticalAlign=middle;resizable=0;points=[];" parent="ZHRIBIaBG7YJhqpDX4hL-422" vertex="1" connectable="0">
          <mxGeometry x="0.5877" y="-1" relative="1" as="geometry">
            <mxPoint x="9" y="5" as="offset" />
          </mxGeometry>
        </mxCell>
        <mxCell id="ZHRIBIaBG7YJhqpDX4hL-434" style="edgeStyle=orthogonalEdgeStyle;rounded=0;orthogonalLoop=1;jettySize=auto;html=1;exitX=0.75;exitY=1;exitDx=0;exitDy=0;endArrow=none;endFill=0;" parent="1" source="ZHRIBIaBG7YJhqpDX4hL-429" edge="1">
          <mxGeometry relative="1" as="geometry">
            <mxPoint x="720" y="320" as="targetPoint" />
            <Array as="points">
              <mxPoint x="320" y="370" />
              <mxPoint x="720" y="370" />
            </Array>
          </mxGeometry>
        </mxCell>
        <mxCell id="ZHRIBIaBG7YJhqpDX4hL-436" value="RF Sync" style="edgeLabel;html=1;align=center;verticalAlign=middle;resizable=0;points=[];" parent="ZHRIBIaBG7YJhqpDX4hL-434" vertex="1" connectable="0">
          <mxGeometry x="-0.4697" relative="1" as="geometry">
            <mxPoint x="-19" y="-10" as="offset" />
          </mxGeometry>
        </mxCell>
        <mxCell id="QhlrPP7_RP2ZhW-mvpU6-16" style="edgeStyle=orthogonalEdgeStyle;rounded=0;orthogonalLoop=1;jettySize=auto;html=1;exitX=0.5;exitY=1;exitDx=0;exitDy=0;entryX=1;entryY=0.5;entryDx=0;entryDy=0;endArrow=none;endFill=0;" parent="1" source="ZHRIBIaBG7YJhqpDX4hL-429" target="QhlrPP7_RP2ZhW-mvpU6-15" edge="1">
          <mxGeometry relative="1" as="geometry" />
        </mxCell>
        <mxCell id="ZHRIBIaBG7YJhqpDX4hL-429" value="RF Synthesizer" style="rounded=0;whiteSpace=wrap;html=1;fillColor=#FFF4C3;" parent="1" vertex="1">
          <mxGeometry x="260" y="237" width="80" height="44" as="geometry" />
        </mxCell>
        <mxCell id="QhlrPP7_RP2ZhW-mvpU6-19" style="edgeStyle=orthogonalEdgeStyle;rounded=0;orthogonalLoop=1;jettySize=auto;html=1;exitX=0.75;exitY=0;exitDx=0;exitDy=0;endArrow=none;endFill=0;" parent="1" source="QhlrPP7_RP2ZhW-mvpU6-15" edge="1">
          <mxGeometry relative="1" as="geometry">
            <mxPoint x="140" y="310" as="targetPoint" />
            <Array as="points">
              <mxPoint x="140" y="330" />
              <mxPoint x="140" y="330" />
            </Array>
          </mxGeometry>
        </mxCell>
        <mxCell id="QhlrPP7_RP2ZhW-mvpU6-20" style="edgeStyle=orthogonalEdgeStyle;rounded=0;orthogonalLoop=1;jettySize=auto;html=1;exitX=0.25;exitY=0;exitDx=0;exitDy=0;endArrow=none;endFill=0;" parent="1" source="QhlrPP7_RP2ZhW-mvpU6-15" edge="1">
          <mxGeometry relative="1" as="geometry">
            <mxPoint x="120" y="310" as="targetPoint" />
          </mxGeometry>
        </mxCell>
        <mxCell id="QhlrPP7_RP2ZhW-mvpU6-21" style="edgeStyle=orthogonalEdgeStyle;rounded=0;orthogonalLoop=1;jettySize=auto;html=1;exitX=0;exitY=0.75;exitDx=0;exitDy=0;endArrow=none;endFill=0;" parent="1" source="QhlrPP7_RP2ZhW-mvpU6-15" edge="1">
          <mxGeometry relative="1" as="geometry">
            <mxPoint x="80" y="310" as="targetPoint" />
          </mxGeometry>
        </mxCell>
        <mxCell id="QhlrPP7_RP2ZhW-mvpU6-22" style="edgeStyle=orthogonalEdgeStyle;rounded=0;orthogonalLoop=1;jettySize=auto;html=1;exitX=0;exitY=0.25;exitDx=0;exitDy=0;endArrow=none;endFill=0;" parent="1" source="QhlrPP7_RP2ZhW-mvpU6-15" edge="1">
          <mxGeometry relative="1" as="geometry">
            <mxPoint x="100" y="310" as="targetPoint" />
            <Array as="points">
              <mxPoint x="100" y="350" />
            </Array>
          </mxGeometry>
        </mxCell>
        <mxCell id="QhlrPP7_RP2ZhW-mvpU6-15" value="&lt;font style=&quot;font-size: 10px;&quot;&gt;Trap Voltage Divider&lt;/font&gt;" style="whiteSpace=wrap;html=1;aspect=fixed;" parent="1" vertex="1">
          <mxGeometry x="110" y="340" width="40" height="40" as="geometry" />
        </mxCell>
        <mxCell id="QhlrPP7_RP2ZhW-mvpU6-17" value="Trap RF" style="text;html=1;align=center;verticalAlign=middle;resizable=0;points=[];autosize=1;strokeColor=none;fillColor=none;" parent="1" vertex="1">
          <mxGeometry x="180" y="338" width="70" height="30" as="geometry" />
        </mxCell>
        <mxCell id="QhlrPP7_RP2ZhW-mvpU6-23" value="V1" style="text;html=1;align=center;verticalAlign=middle;resizable=0;points=[];autosize=1;strokeColor=none;fillColor=none;" parent="1" vertex="1">
          <mxGeometry x="69" y="318" width="40" height="30" as="geometry" />
        </mxCell>
        <mxCell id="QhlrPP7_RP2ZhW-mvpU6-24" value="V2" style="text;html=1;align=center;verticalAlign=middle;resizable=0;points=[];autosize=1;strokeColor=none;fillColor=none;" parent="1" vertex="1">
          <mxGeometry x="88.5" y="318" width="40" height="30" as="geometry" />
        </mxCell>
        <mxCell id="QhlrPP7_RP2ZhW-mvpU6-25" value="V3" style="text;html=1;align=center;verticalAlign=middle;resizable=0;points=[];autosize=1;strokeColor=none;fillColor=none;" parent="1" vertex="1">
          <mxGeometry x="109" y="318" width="40" height="30" as="geometry" />
        </mxCell>
        <mxCell id="QhlrPP7_RP2ZhW-mvpU6-26" value="V4" style="text;html=1;align=center;verticalAlign=middle;resizable=0;points=[];autosize=1;strokeColor=none;fillColor=none;" parent="1" vertex="1">
          <mxGeometry x="129.75" y="318" width="40" height="30" as="geometry" />
        </mxCell>
        <mxCell id="QhlrPP7_RP2ZhW-mvpU6-28" style="edgeStyle=orthogonalEdgeStyle;rounded=0;orthogonalLoop=1;jettySize=auto;html=1;exitX=0.5;exitY=0;exitDx=0;exitDy=0;entryX=0.5;entryY=0;entryDx=0;entryDy=0;endArrow=none;endFill=0;" parent="1" source="ZHRIBIaBG7YJhqpDX4hL-89" target="ZHRIBIaBG7YJhqpDX4hL-376" edge="1">
          <mxGeometry relative="1" as="geometry" />
        </mxCell>
        <mxCell id="QhlrPP7_RP2ZhW-mvpU6-37" style="edgeStyle=orthogonalEdgeStyle;rounded=0;orthogonalLoop=1;jettySize=auto;html=1;exitX=0;exitY=0.25;exitDx=0;exitDy=0;" parent="1" edge="1">
          <mxGeometry relative="1" as="geometry">
            <mxPoint y="320" as="targetPoint" />
            <mxPoint x="40" y="274.83" as="sourcePoint" />
          </mxGeometry>
        </mxCell>
        <mxCell id="QhlrPP7_RP2ZhW-mvpU6-38" value="D0" style="edgeLabel;html=1;align=center;verticalAlign=middle;resizable=0;points=[];" parent="QhlrPP7_RP2ZhW-mvpU6-37" vertex="1" connectable="0">
          <mxGeometry x="-0.3289" relative="1" as="geometry">
            <mxPoint x="18" y="-9" as="offset" />
          </mxGeometry>
        </mxCell>
        <mxCell id="QhlrPP7_RP2ZhW-mvpU6-39" value="PI Shutter" style="edgeLabel;html=1;align=center;verticalAlign=middle;resizable=0;points=[];" parent="QhlrPP7_RP2ZhW-mvpU6-37" vertex="1" connectable="0">
          <mxGeometry x="0.7879" y="-1" relative="1" as="geometry">
            <mxPoint x="1" y="19" as="offset" />
          </mxGeometry>
        </mxCell>
      </root>
    </mxGraphModel>
  </diagram>
</mxfile>
